<svg width="667" height="97" viewBox="0 0 667 97" fill="none" xmlns="http://www.w3.org/2000/svg">
<path d="M0.0436876 34.704L9.88369 2.88H20.4437L30.2837 34.704L29.4197 36H23.6597L21.6437 29.28H8.68369L6.66769 36H0.907688L0.0436876 34.704ZM10.5557 23.04H19.7717L15.5477 9.12H14.7797L10.5557 23.04ZM34.4124 28.224V10.656H41.0364V28.704C41.0364 29.728 41.5484 30.24 42.5724 30.24H49.5804V10.656H56.2044V36H42.1884C37.0044 36 34.4124 33.408 34.4124 28.224ZM62.9124 28.224V2.88H69.5364V10.656H77.7924V16.416H69.5364V28.704C69.5364 29.728 70.0484 30.24 71.0724 30.24H78.2724V33.84L75.3924 36H70.6884C65.5044 36 62.9124 33.408 62.9124 28.224ZM83.0642 28.224V18.432C83.0642 13.248 85.6562 10.656 90.8402 10.656H97.5602C102.744 10.656 105.336 13.248 105.336 18.432V28.224C105.336 33.408 102.744 36 97.5602 36H90.8402C85.6562 36 83.0642 33.408 83.0642 28.224ZM89.6882 28.704C89.6882 29.728 90.2002 30.24 91.2242 30.24H97.1762C98.2002 30.24 98.7122 29.728 98.7122 28.704V17.952C98.7122 16.928 98.2002 16.416 97.1762 16.416H91.2242C90.2002 16.416 89.6882 16.928 89.6882 17.952V28.704ZM111.854 36V10.656H140.75C145.934 10.656 148.526 13.248 148.526 18.432V36H141.902V17.952C141.902 16.928 141.39 16.416 140.366 16.416H133.502V36H126.878V16.416H118.478V36H111.854ZM161.693 36C156.509 36 153.917 33.456 153.917 28.368C153.917 23.28 156.509 20.736 161.693 20.736H168.317V17.952C168.317 16.928 167.805 16.416 166.781 16.416H156.605V12.816L159.485 10.656H167.165C172.349 10.656 174.941 13.248 174.941 18.432V36H161.693ZM160.541 28.704C160.541 29.728 161.053 30.24 162.077 30.24H168.317V25.824H162.077C161.053 25.824 160.541 26.336 160.541 27.36V28.704ZM181.459 28.224V2.88H188.083V10.656H196.339V16.416H188.083V28.704C188.083 29.728 188.595 30.24 189.619 30.24H196.819V33.84L193.939 36H189.235C184.051 36 181.459 33.408 181.459 28.224ZM201.611 28.224V18.432C201.611 13.248 204.203 10.656 209.387 10.656H215.627C220.811 10.656 223.403 13.248 223.403 18.432V25.776H208.235V28.704C208.235 29.728 208.747 30.24 209.771 30.24H222.443V33.84L219.563 36H209.387C204.203 36 201.611 33.408 201.611 28.224ZM208.235 20.688H216.779V17.952C216.779 16.928 216.267 16.416 215.243 16.416H209.771C208.747 16.416 208.235 16.928 208.235 17.952V20.688ZM229.549 28.224V18.432C229.549 13.248 232.141 10.656 237.325 10.656H244.717V0.48H251.341V36H237.325C232.141 36 229.549 33.408 229.549 28.224ZM236.173 28.704C236.173 29.728 236.685 30.24 237.709 30.24H244.717V16.416H237.709C236.685 16.416 236.173 16.928 236.173 17.952V28.704ZM269.776 36V10.656H298.672C303.856 10.656 306.448 13.248 306.448 18.432V36H299.824V17.952C299.824 16.928 299.312 16.416 298.288 16.416H291.424V36H284.8V16.416H276.4V36H269.776ZM319.615 36C314.431 36 311.839 33.456 311.839 28.368C311.839 23.28 314.431 20.736 319.615 20.736H326.239V17.952C326.239 16.928 325.727 16.416 324.703 16.416H314.527V12.816L317.407 10.656H325.087C330.271 10.656 332.863 13.248 332.863 18.432V36H319.615ZM318.463 28.704C318.463 29.728 318.975 30.24 319.999 30.24H326.239V25.824H319.999C318.975 25.824 318.463 26.336 318.463 27.36V28.704ZM339.381 36V13.92C340.565 11.744 342.837 10.656 346.197 10.656H351.381L354.261 12.816V16.416H347.973C347.013 16.416 346.357 16.656 346.005 17.136V36H339.381ZM358.979 36V0.48H365.603V20.208L374.387 10.656H380.915L381.443 11.76L372.659 21.216L382.115 34.896L381.587 36H375.107L368.291 25.968L365.603 28.896V36H358.979ZM386.439 28.224V18.432C386.439 13.248 389.031 10.656 394.215 10.656H400.455C405.639 10.656 408.231 13.248 408.231 18.432V25.776H393.063V28.704C393.063 29.728 393.575 30.24 394.599 30.24H407.271V33.84L404.391 36H394.215C389.031 36 386.439 33.408 386.439 28.224ZM393.063 20.688H401.607V17.952C401.607 16.928 401.095 16.416 400.071 16.416H394.599C393.575 16.416 393.063 16.928 393.063 17.952V20.688ZM414.569 28.224V2.88H421.193V10.656H429.449V16.416H421.193V28.704C421.193 29.728 421.705 30.24 422.729 30.24H429.929V33.84L427.049 36H422.345C417.161 36 414.569 33.408 414.569 28.224ZM446.636 36V10.656H475.532C480.716 10.656 483.308 13.248 483.308 18.432V36H476.684V17.952C476.684 16.928 476.172 16.416 475.148 16.416H468.284V36H461.66V16.416H453.26V36H446.636ZM496.474 36C491.29 36 488.698 33.456 488.698 28.368C488.698 23.28 491.29 20.736 496.474 20.736H503.098V17.952C503.098 16.928 502.586 16.416 501.562 16.416H491.386V12.816L494.266 10.656H501.946C507.13 10.656 509.722 13.248 509.722 18.432V36H496.474ZM495.322 28.704C495.322 29.728 495.834 30.24 496.858 30.24H503.098V25.824H496.858C495.834 25.824 495.322 26.336 495.322 27.36V28.704ZM516.433 36V0.48H523.057V20.208L531.841 10.656H538.369L538.897 11.76L530.113 21.216L539.569 34.896L539.041 36H532.561L525.745 25.968L523.057 28.896V36H516.433ZM543.892 28.224V18.432C543.892 13.248 546.484 10.656 551.668 10.656H557.908C563.092 10.656 565.684 13.248 565.684 18.432V25.776H550.516V28.704C550.516 29.728 551.028 30.24 552.052 30.24H564.724V33.84L561.844 36H551.668C546.484 36 543.892 33.408 543.892 28.224ZM550.516 20.688H559.06V17.952C559.06 16.928 558.548 16.416 557.524 16.416H552.052C551.028 16.416 550.516 16.928 550.516 17.952V20.688ZM572.022 36V13.92C573.206 11.744 575.478 10.656 578.838 10.656H584.022L586.902 12.816V16.416H580.614C579.654 16.416 578.998 16.656 578.646 17.136V36H572.022ZM603.151 36V8.256C603.151 3.072 605.743 0.48 610.927 0.48H615.631L618.511 2.64V6.24H611.311C610.287 6.24 609.775 6.752 609.775 7.776V10.656H618.031V16.416H609.775V36H603.151ZM622.549 28.224V18.432C622.549 13.248 625.141 10.656 630.325 10.656H637.045C642.229 10.656 644.821 13.248 644.821 18.432V28.224C644.821 33.408 642.229 36 637.045 36H630.325C625.141 36 622.549 33.408 622.549 28.224ZM629.173 28.704C629.173 29.728 629.685 30.24 630.709 30.24H636.661C637.685 30.24 638.197 29.728 638.197 28.704V17.952C638.197 16.928 637.685 16.416 636.661 16.416H630.709C629.685 16.416 629.173 16.928 629.173 17.952V28.704ZM651.147 36V13.92C652.331 11.744 654.603 10.656 657.963 10.656H663.147L666.027 12.816V16.416H659.739C658.779 16.416 658.123 16.656 657.771 17.136V36H651.147ZM65.3188 96V62.88H72.8068L85.9588 84.624V62.88H92.8708V96H85.3828L72.2308 74.256V96H65.3188ZM100.756 96V62.88H123.412V69.12H107.668V77.28H121.972V83.52H107.668V96H100.756ZM126.004 69.12V62.88H153.076V69.12H142.996V96H136.084V69.12H126.004ZM153.772 84.192V78.528H168.172V84.192H153.772ZM173.158 88.224V78.432C173.158 73.248 175.75 70.656 180.934 70.656H189.862L192.742 72.816V76.416H181.318C180.294 76.416 179.782 76.928 179.782 77.952V88.704C179.782 89.728 180.294 90.24 181.318 90.24H192.742V93.84L189.862 96H180.934C175.75 96 173.158 93.408 173.158 88.224ZM198.002 88.224V78.432C198.002 73.248 200.594 70.656 205.778 70.656H212.498C217.682 70.656 220.274 73.248 220.274 78.432V88.224C220.274 93.408 217.682 96 212.498 96H205.778C200.594 96 198.002 93.408 198.002 88.224ZM204.626 88.704C204.626 89.728 205.138 90.24 206.162 90.24H212.114C213.138 90.24 213.65 89.728 213.65 88.704V77.952C213.65 76.928 213.138 76.416 212.114 76.416H206.162C205.138 76.416 204.626 76.928 204.626 77.952V88.704ZM226.6 86.784V60.48H233.224V87.456C233.224 89.44 234.248 90.544 236.296 90.768V96.48C229.832 96.48 226.6 93.248 226.6 86.784ZM241.459 86.784V60.48H248.083V87.456C248.083 89.44 249.107 90.544 251.155 90.768V96.48C244.691 96.48 241.459 93.248 241.459 86.784ZM262.943 96C257.759 96 255.167 93.456 255.167 88.368C255.167 83.28 257.759 80.736 262.943 80.736H269.567V77.952C269.567 76.928 269.055 76.416 268.031 76.416H257.855V72.816L260.735 70.656H268.415C273.599 70.656 276.191 73.248 276.191 78.432V96H262.943ZM261.791 88.704C261.791 89.728 262.303 90.24 263.327 90.24H269.567V85.824H263.327C262.303 85.824 261.791 86.336 261.791 87.36V88.704ZM282.709 88.224V62.88H289.333V70.656H297.589V76.416H289.333V88.704C289.333 89.728 289.845 90.24 290.869 90.24H298.069V93.84L295.189 96H290.485C285.301 96 282.709 93.408 282.709 88.224ZM302.861 88.224V78.432C302.861 73.248 305.453 70.656 310.637 70.656H316.877C322.061 70.656 324.653 73.248 324.653 78.432V85.776H309.485V88.704C309.485 89.728 309.997 90.24 311.021 90.24H323.693V93.84L320.813 96H310.637C305.453 96 302.861 93.408 302.861 88.224ZM309.485 80.688H318.029V77.952C318.029 76.928 317.517 76.416 316.493 76.416H311.021C309.997 76.416 309.485 76.928 309.485 77.952V80.688ZM330.991 96V73.92C332.175 71.744 334.447 70.656 337.807 70.656H342.991L345.871 72.816V76.416H339.583C338.623 76.416 337.967 76.656 337.615 77.136V96H330.991ZM356.552 96C351.368 96 348.776 93.456 348.776 88.368C348.776 83.28 351.368 80.736 356.552 80.736H363.176V77.952C363.176 76.928 362.664 76.416 361.64 76.416H351.464V72.816L354.344 70.656H362.024C367.208 70.656 369.8 73.248 369.8 78.432V96H356.552ZM355.4 88.704C355.4 89.728 355.912 90.24 356.936 90.24H363.176V85.824H356.936C355.912 85.824 355.4 86.336 355.4 87.36V88.704ZM376.319 86.784V60.48H382.943V87.456C382.943 89.44 383.967 90.544 386.015 90.768V96.48C379.551 96.48 376.319 93.248 376.319 86.784ZM391.226 66.48V60H398.138V66.48H391.226ZM391.37 96V70.656H397.994V96H391.37ZM403.477 96V91.008L415.333 76.416H403.957V70.656H423.829V75.648L412.021 90.24H424.309V96H403.477ZM429.377 88.224V78.432C429.377 73.248 431.969 70.656 437.153 70.656H443.393C448.577 70.656 451.169 73.248 451.169 78.432V85.776H436.001V88.704C436.001 89.728 436.513 90.24 437.537 90.24H450.209V93.84L447.329 96H437.153C431.969 96 429.377 93.408 429.377 88.224ZM436.001 80.688H444.545V77.952C444.545 76.928 444.033 76.416 443.009 76.416H437.537C436.513 76.416 436.001 76.928 436.001 77.952V80.688ZM457.314 88.224V78.432C457.314 73.248 459.906 70.656 465.09 70.656H472.482V60.48H479.106V96H465.09C459.906 96 457.314 93.408 457.314 88.224ZM463.938 88.704C463.938 89.728 464.45 90.24 465.474 90.24H472.482V76.416H465.474C464.45 76.416 463.938 76.928 463.938 77.952V88.704ZM497.35 86.784V60.48H503.974V87.456C503.974 89.44 504.998 90.544 507.046 90.768V96.48C500.582 96.48 497.35 93.248 497.35 86.784ZM512.017 88.224V78.432C512.017 73.248 514.609 70.656 519.793 70.656H526.513C531.697 70.656 534.289 73.248 534.289 78.432V88.224C534.289 93.408 531.697 96 526.513 96H519.793C514.609 96 512.017 93.408 512.017 88.224ZM518.641 88.704C518.641 89.728 519.153 90.24 520.177 90.24H526.129C527.153 90.24 527.665 89.728 527.665 88.704V77.952C527.665 76.928 527.153 76.416 526.129 76.416H520.177C519.153 76.416 518.641 76.928 518.641 77.952V88.704ZM547.24 96C542.056 96 539.464 93.456 539.464 88.368C539.464 83.28 542.056 80.736 547.24 80.736H553.864V77.952C553.864 76.928 553.352 76.416 552.328 76.416H542.152V72.816L545.032 70.656H552.712C557.896 70.656 560.488 73.248 560.488 78.432V96H547.24ZM546.088 88.704C546.088 89.728 546.6 90.24 547.624 90.24H553.864V85.824H547.624C546.6 85.824 546.088 86.336 546.088 87.36V88.704ZM567.198 96V70.656H581.214C586.398 70.656 588.99 73.248 588.99 78.432V96H582.366V77.952C582.366 76.928 581.854 76.416 580.83 76.416H573.822V96H567.198ZM594.834 93.84V90.24H605.874C606.962 90.24 607.506 89.632 607.506 88.416C607.506 87.168 607.058 86.464 606.162 86.304L600.978 85.44C596.882 84.736 594.834 82.368 594.834 78.336C594.834 73.216 597.426 70.656 602.61 70.656H610.05L612.93 72.816V76.416H602.994C601.906 76.416 601.362 77.024 601.362 78.24C601.362 79.52 601.858 80.24 602.85 80.4L607.986 81.264C612.05 81.936 614.082 84.272 614.082 88.272C614.082 93.424 611.474 96 606.258 96H597.714L594.834 93.84Z" fill="url(#paint0_linear_240_194)"/>
<defs>
<linearGradient id="paint0_linear_240_194" x1="855" y1="52.1964" x2="-177" y2="52.1963" gradientUnits="userSpaceOnUse">
<stop stop-color="#FF7401"/>
<stop offset="1" stop-color="#5001EB"/>
</linearGradient>
</defs>
</svg>
