<svg width="324" height="163" viewBox="0 0 324 163" fill="none" xmlns="http://www.w3.org/2000/svg">
<path d="M0.972219 26.028L8.35222 2.16H16.2722L23.6522 26.028L23.0042 27H18.6842L17.1722 21.96H7.45222L5.94022 27H1.62022L0.972219 26.028ZM8.85622 17.28H15.7682L12.6002 6.84H12.0242L8.85622 17.28ZM26.7488 21.168V7.992H31.7168V21.528C31.7168 22.296 32.1008 22.68 32.8688 22.68H38.1248V7.992H43.0928V27H32.5808C28.6928 27 26.7488 25.056 26.7488 21.168ZM48.1238 21.168V2.16H53.0918V7.992H59.2838V12.312H53.0918V21.528C53.0918 22.296 53.4758 22.68 54.2438 22.68H59.6438V25.38L57.4838 27H53.9558C50.0678 27 48.1238 25.056 48.1238 21.168ZM63.2376 21.168V13.824C63.2376 9.936 65.1816 7.992 69.0696 7.992H74.1096C77.9976 7.992 79.9416 9.936 79.9416 13.824V21.168C79.9416 25.056 77.9976 27 74.1096 27H69.0696C65.1816 27 63.2376 25.056 63.2376 21.168ZM68.2056 21.528C68.2056 22.296 68.5896 22.68 69.3576 22.68H73.8216C74.5896 22.68 74.9736 22.296 74.9736 21.528V13.464C74.9736 12.696 74.5896 12.312 73.8216 12.312H69.3576C68.5896 12.312 68.2056 12.696 68.2056 13.464V21.528ZM84.8303 27V7.992H106.502C110.39 7.992 112.334 9.936 112.334 13.824V27H107.366V13.464C107.366 12.696 106.982 12.312 106.214 12.312H101.066V27H96.0983V12.312H89.7983V27H84.8303ZM122.209 27C118.321 27 116.377 25.092 116.377 21.276C116.377 17.46 118.321 15.552 122.209 15.552H127.177V13.464C127.177 12.696 126.793 12.312 126.025 12.312H118.393V9.612L120.553 7.992H126.313C130.201 7.992 132.145 9.936 132.145 13.824V27H122.209ZM121.345 21.528C121.345 22.296 121.729 22.68 122.497 22.68H127.177V19.368H122.497C121.729 19.368 121.345 19.752 121.345 20.52V21.528ZM137.034 21.168V2.16H142.002V7.992H148.194V12.312H142.002V21.528C142.002 22.296 142.386 22.68 143.154 22.68H148.554V25.38L146.394 27H142.866C138.978 27 137.034 25.056 137.034 21.168ZM152.148 21.168V13.824C152.148 9.936 154.092 7.992 157.98 7.992H162.66C166.548 7.992 168.492 9.936 168.492 13.824V19.332H157.116V21.528C157.116 22.296 157.5 22.68 158.268 22.68H167.772V25.38L165.612 27H157.98C154.092 27 152.148 25.056 152.148 21.168ZM157.116 15.516H163.524V13.464C163.524 12.696 163.14 12.312 162.372 12.312H158.268C157.5 12.312 157.116 12.696 157.116 13.464V15.516ZM173.101 21.168V13.824C173.101 9.936 175.045 7.992 178.933 7.992H184.477V0.36H189.445V27H178.933C175.045 27 173.101 25.056 173.101 21.168ZM178.069 21.528C178.069 22.296 178.453 22.68 179.221 22.68H184.477V12.312H179.221C178.453 12.312 178.069 12.696 178.069 13.464V21.528ZM203.272 27V7.992H224.944C228.832 7.992 230.776 9.936 230.776 13.824V27H225.808V13.464C225.808 12.696 225.424 12.312 224.656 12.312H219.508V27H214.54V12.312H208.24V27H203.272ZM240.65 27C236.762 27 234.818 25.092 234.818 21.276C234.818 17.46 236.762 15.552 240.65 15.552H245.618V13.464C245.618 12.696 245.234 12.312 244.466 12.312H236.834V9.612L238.994 7.992H244.754C248.642 7.992 250.586 9.936 250.586 13.824V27H240.65ZM239.786 21.528C239.786 22.296 240.17 22.68 240.938 22.68H245.618V19.368H240.938C240.17 19.368 239.786 19.752 239.786 20.52V21.528ZM255.475 27V10.44C256.363 8.808 258.067 7.992 260.587 7.992H264.475L266.635 9.612V12.312H261.919C261.199 12.312 260.707 12.492 260.443 12.852V27H255.475ZM270.174 27V0.36H275.142V15.156L281.73 7.992H286.626L287.022 8.82L280.434 15.912L287.526 26.172L287.13 27H282.27L277.158 19.476L275.142 21.672V27H270.174ZM290.769 21.168V13.824C290.769 9.936 292.713 7.992 296.601 7.992H301.281C305.169 7.992 307.113 9.936 307.113 13.824V19.332H295.737V21.528C295.737 22.296 296.121 22.68 296.889 22.68H306.393V25.38L304.233 27H296.601C292.713 27 290.769 25.056 290.769 21.168ZM295.737 15.516H302.145V13.464C302.145 12.696 301.761 12.312 300.993 12.312H296.889C296.121 12.312 295.737 12.696 295.737 13.464V15.516ZM311.866 21.168V2.16H316.834V7.992H323.026V12.312H316.834V21.528C316.834 22.296 317.218 22.68 317.986 22.68H323.386V25.38L321.226 27H317.698C313.81 27 311.866 25.056 311.866 21.168ZM76.7268 72V52.992H98.3988C102.287 52.992 104.231 54.936 104.231 58.824V72H99.2628V58.464C99.2628 57.696 98.8788 57.312 98.1108 57.312H92.9628V72H87.9948V57.312H81.6948V72H76.7268ZM114.105 72C110.217 72 108.273 70.092 108.273 66.276C108.273 62.46 110.217 60.552 114.105 60.552H119.073V58.464C119.073 57.696 118.689 57.312 117.921 57.312H110.289V54.612L112.449 52.992H118.209C122.097 52.992 124.041 54.936 124.041 58.824V72H114.105ZM113.241 66.528C113.241 67.296 113.625 67.68 114.393 67.68H119.073V64.368H114.393C113.625 64.368 113.241 64.752 113.241 65.52V66.528ZM129.074 72V45.36H134.042V60.156L140.63 52.992H145.526L145.922 53.82L139.334 60.912L146.426 71.172L146.03 72H141.17L136.058 64.476L134.042 66.672V72H129.074ZM149.669 66.168V58.824C149.669 54.936 151.613 52.992 155.501 52.992H160.181C164.069 52.992 166.013 54.936 166.013 58.824V64.332H154.637V66.528C154.637 67.296 155.021 67.68 155.789 67.68H165.293V70.38L163.133 72H155.501C151.613 72 149.669 70.056 149.669 66.168ZM154.637 60.516H161.045V58.464C161.045 57.696 160.661 57.312 159.893 57.312H155.789C155.021 57.312 154.637 57.696 154.637 58.464V60.516ZM170.766 72V55.44C171.654 53.808 173.358 52.992 175.878 52.992H179.766L181.926 54.612V57.312H177.21C176.49 57.312 175.998 57.492 175.734 57.852V72H170.766ZM194.113 72V51.192C194.113 47.304 196.057 45.36 199.945 45.36H203.473L205.633 46.98V49.68H200.233C199.465 49.68 199.081 50.064 199.081 50.832V52.992H205.273V57.312H199.081V72H194.113ZM208.661 66.168V58.824C208.661 54.936 210.605 52.992 214.493 52.992H219.533C223.421 52.992 225.365 54.936 225.365 58.824V66.168C225.365 70.056 223.421 72 219.533 72H214.493C210.605 72 208.661 70.056 208.661 66.168ZM213.629 66.528C213.629 67.296 214.013 67.68 214.781 67.68H219.245C220.013 67.68 220.397 67.296 220.397 66.528V58.464C220.397 57.696 220.013 57.312 219.245 57.312H214.781C214.013 57.312 213.629 57.696 213.629 58.464V66.528ZM230.11 72V55.44C230.998 53.808 232.702 52.992 235.222 52.992H239.11L241.27 54.612V57.312H236.554C235.834 57.312 235.342 57.492 235.078 57.852V72H230.11ZM7.51255 117V92.16H13.1285L22.9925 108.468V92.16H28.1765V117H22.5605L12.6965 100.692V117H7.51255ZM34.0907 117V92.16H51.0827V96.84H39.2747V102.96H50.0027V107.64H39.2747V117H34.0907ZM53.0261 96.84V92.16H73.3301V96.84H65.7701V117H60.5861V96.84H53.0261ZM73.8521 108.144V103.896H84.6521V108.144H73.8521ZM88.3919 111.168V103.824C88.3919 99.936 90.3359 97.992 94.2239 97.992H100.92L103.08 99.612V102.312H94.5119C93.7439 102.312 93.3599 102.696 93.3599 103.464V111.528C93.3599 112.296 93.7439 112.68 94.5119 112.68H103.08V115.38L100.92 117H94.2239C90.3359 117 88.3919 115.056 88.3919 111.168ZM107.025 111.168V103.824C107.025 99.936 108.969 97.992 112.857 97.992H117.897C121.785 97.992 123.729 99.936 123.729 103.824V111.168C123.729 115.056 121.785 117 117.897 117H112.857C108.969 117 107.025 115.056 107.025 111.168ZM111.993 111.528C111.993 112.296 112.377 112.68 113.145 112.68H117.609C118.377 112.68 118.761 112.296 118.761 111.528V103.464C118.761 102.696 118.377 102.312 117.609 102.312H113.145C112.377 102.312 111.993 102.696 111.993 103.464V111.528ZM128.473 110.088V90.36H133.441V110.592C133.441 112.08 134.209 112.908 135.745 113.076V117.36C130.897 117.36 128.473 114.936 128.473 110.088ZM139.618 110.088V90.36H144.586V110.592C144.586 112.08 145.354 112.908 146.89 113.076V117.36C142.042 117.36 139.618 114.936 139.618 110.088ZM155.73 117C151.842 117 149.898 115.092 149.898 111.276C149.898 107.46 151.842 105.552 155.73 105.552H160.698V103.464C160.698 102.696 160.314 102.312 159.546 102.312H151.914V99.612L154.074 97.992H159.834C163.722 97.992 165.666 99.936 165.666 103.824V117H155.73ZM154.866 111.528C154.866 112.296 155.25 112.68 156.018 112.68H160.698V109.368H156.018C155.25 109.368 154.866 109.752 154.866 110.52V111.528ZM170.555 111.168V92.16H175.523V97.992H181.715V102.312H175.523V111.528C175.523 112.296 175.907 112.68 176.675 112.68H182.075V115.38L179.915 117H176.387C172.499 117 170.555 115.056 170.555 111.168ZM185.669 111.168V103.824C185.669 99.936 187.613 97.992 191.501 97.992H196.181C200.069 97.992 202.013 99.936 202.013 103.824V109.332H190.637V111.528C190.637 112.296 191.021 112.68 191.789 112.68H201.293V115.38L199.133 117H191.501C187.613 117 185.669 115.056 185.669 111.168ZM190.637 105.516H197.045V103.464C197.045 102.696 196.661 102.312 195.893 102.312H191.789C191.021 102.312 190.637 102.696 190.637 103.464V105.516ZM206.766 117V100.44C207.654 98.808 209.358 97.992 211.878 97.992H215.766L217.926 99.612V102.312H213.21C212.49 102.312 211.998 102.492 211.734 102.852V117H206.766ZM225.937 117C222.049 117 220.105 115.092 220.105 111.276C220.105 107.46 222.049 105.552 225.937 105.552H230.905V103.464C230.905 102.696 230.521 102.312 229.753 102.312H222.121V99.612L224.281 97.992H230.041C233.929 97.992 235.873 99.936 235.873 103.824V117H225.937ZM225.073 111.528C225.073 112.296 225.457 112.68 226.225 112.68H230.905V109.368H226.225C225.457 109.368 225.073 109.752 225.073 110.52V111.528ZM240.762 110.088V90.36H245.73V110.592C245.73 112.08 246.498 112.908 248.034 113.076V117.36C243.186 117.36 240.762 114.936 240.762 110.088ZM251.943 94.86V90H257.127V94.86H251.943ZM252.051 117V97.992H257.019V117H252.051ZM261.131 117V113.256L270.023 102.312H261.491V97.992H276.395V101.736L267.539 112.68H276.755V117H261.131ZM280.556 111.168V103.824C280.556 99.936 282.5 97.992 286.388 97.992H291.068C294.956 97.992 296.9 99.936 296.9 103.824V109.332H285.524V111.528C285.524 112.296 285.908 112.68 286.676 112.68H296.18V115.38L294.02 117H286.388C282.5 117 280.556 115.056 280.556 111.168ZM285.524 105.516H291.932V103.464C291.932 102.696 291.548 102.312 290.78 102.312H286.676C285.908 102.312 285.524 102.696 285.524 103.464V105.516ZM301.509 111.168V103.824C301.509 99.936 303.453 97.992 307.341 97.992H312.885V90.36H317.853V117H307.341C303.453 117 301.509 115.056 301.509 111.168ZM306.477 111.528C306.477 112.296 306.861 112.68 307.629 112.68H312.885V102.312H307.629C306.861 102.312 306.477 102.696 306.477 103.464V111.528ZM118.999 155.088V135.36H123.967V155.592C123.967 157.08 124.735 157.908 126.271 158.076V162.36C121.423 162.36 118.999 159.936 118.999 155.088ZM129.999 156.168V148.824C129.999 144.936 131.943 142.992 135.831 142.992H140.871C144.759 142.992 146.703 144.936 146.703 148.824V156.168C146.703 160.056 144.759 162 140.871 162H135.831C131.943 162 129.999 160.056 129.999 156.168ZM134.967 156.528C134.967 157.296 135.351 157.68 136.119 157.68H140.583C141.351 157.68 141.735 157.296 141.735 156.528V148.464C141.735 147.696 141.351 147.312 140.583 147.312H136.119C135.351 147.312 134.967 147.696 134.967 148.464V156.528ZM156.416 162C152.528 162 150.584 160.092 150.584 156.276C150.584 152.46 152.528 150.552 156.416 150.552H161.384V148.464C161.384 147.696 161 147.312 160.232 147.312H152.6V144.612L154.76 142.992H160.52C164.408 142.992 166.352 144.936 166.352 148.824V162H156.416ZM155.552 156.528C155.552 157.296 155.936 157.68 156.704 157.68H161.384V154.368H156.704C155.936 154.368 155.552 154.752 155.552 155.52V156.528ZM171.385 162V142.992H181.897C185.785 142.992 187.729 144.936 187.729 148.824V162H182.761V148.464C182.761 147.696 182.377 147.312 181.609 147.312H176.353V162H171.385ZM192.112 160.38V157.68H200.392C201.208 157.68 201.616 157.224 201.616 156.312C201.616 155.376 201.28 154.848 200.608 154.728L196.72 154.08C193.648 153.552 192.112 151.776 192.112 148.752C192.112 144.912 194.056 142.992 197.944 142.992H203.524L205.684 144.612V147.312H198.232C197.416 147.312 197.008 147.768 197.008 148.68C197.008 149.64 197.38 150.18 198.124 150.3L201.976 150.948C205.024 151.452 206.548 153.204 206.548 156.204C206.548 160.068 204.592 162 200.68 162H194.272L192.112 160.38Z" fill="url(#paint0_linear_252_104)"/>
<defs>
<linearGradient id="paint0_linear_252_104" x1="334" y1="84.3308" x2="-9" y2="84.3307" gradientUnits="userSpaceOnUse">
<stop stop-color="#FF7401"/>
<stop offset="1" stop-color="#5001EB"/>
</linearGradient>
</defs>
</svg>
