<svg width="588" height="157" viewBox="0 0 588 157" fill="none" xmlns="http://www.w3.org/2000/svg">
<path d="M0.371813 34.704L10.2118 2.88H20.7718L30.6118 34.704L29.7478 36H23.9878L21.9718 29.28H9.01181L6.99581 36H1.23581L0.371813 34.704ZM10.8838 23.04H20.0998L15.8758 9.12H15.1078L10.8838 23.04ZM34.7406 28.224V10.656H41.3646V28.704C41.3646 29.728 41.8766 30.24 42.9006 30.24H49.9086V10.656H56.5326V36H42.5166C37.3326 36 34.7406 33.408 34.7406 28.224ZM63.2406 28.224V2.88H69.8646V10.656H78.1206V16.416H69.8646V28.704C69.8646 29.728 70.3766 30.24 71.4006 30.24H78.6006V33.84L75.7206 36H71.0166C65.8326 36 63.2406 33.408 63.2406 28.224ZM83.3923 28.224V18.432C83.3923 13.248 85.9843 10.656 91.1683 10.656H97.8883C103.072 10.656 105.664 13.248 105.664 18.432V28.224C105.664 33.408 103.072 36 97.8883 36H91.1683C85.9843 36 83.3923 33.408 83.3923 28.224ZM90.0163 28.704C90.0163 29.728 90.5283 30.24 91.5523 30.24H97.5043C98.5283 30.24 99.0403 29.728 99.0403 28.704V17.952C99.0403 16.928 98.5283 16.416 97.5043 16.416H91.5523C90.5283 16.416 90.0163 16.928 90.0163 17.952V28.704ZM112.183 36V10.656H141.079C146.263 10.656 148.855 13.248 148.855 18.432V36H142.231V17.952C142.231 16.928 141.719 16.416 140.695 16.416H133.831V36H127.207V16.416H118.807V36H112.183ZM162.021 36C156.837 36 154.245 33.456 154.245 28.368C154.245 23.28 156.837 20.736 162.021 20.736H168.645V17.952C168.645 16.928 168.133 16.416 167.109 16.416H156.933V12.816L159.813 10.656H167.493C172.677 10.656 175.269 13.248 175.269 18.432V36H162.021ZM160.869 28.704C160.869 29.728 161.381 30.24 162.405 30.24H168.645V25.824H162.405C161.381 25.824 160.869 26.336 160.869 27.36V28.704ZM181.787 28.224V2.88H188.411V10.656H196.667V16.416H188.411V28.704C188.411 29.728 188.923 30.24 189.947 30.24H197.147V33.84L194.267 36H189.563C184.379 36 181.787 33.408 181.787 28.224ZM201.939 28.224V18.432C201.939 13.248 204.531 10.656 209.715 10.656H215.955C221.139 10.656 223.731 13.248 223.731 18.432V25.776H208.563V28.704C208.563 29.728 209.075 30.24 210.099 30.24H222.771V33.84L219.891 36H209.715C204.531 36 201.939 33.408 201.939 28.224ZM208.563 20.688H217.107V17.952C217.107 16.928 216.595 16.416 215.571 16.416H210.099C209.075 16.416 208.563 16.928 208.563 17.952V20.688ZM229.877 28.224V18.432C229.877 13.248 232.469 10.656 237.653 10.656H245.045V0.48H251.669V36H237.653C232.469 36 229.877 33.408 229.877 28.224ZM236.501 28.704C236.501 29.728 237.013 30.24 238.037 30.24H245.045V16.416H238.037C237.013 16.416 236.501 16.928 236.501 17.952V28.704ZM270.104 36V10.656H299C304.184 10.656 306.776 13.248 306.776 18.432V36H300.152V17.952C300.152 16.928 299.64 16.416 298.616 16.416H291.752V36H285.128V16.416H276.728V36H270.104ZM319.943 36C314.759 36 312.167 33.456 312.167 28.368C312.167 23.28 314.759 20.736 319.943 20.736H326.567V17.952C326.567 16.928 326.055 16.416 325.031 16.416H314.855V12.816L317.735 10.656H325.415C330.599 10.656 333.191 13.248 333.191 18.432V36H319.943ZM318.791 28.704C318.791 29.728 319.303 30.24 320.327 30.24H326.567V25.824H320.327C319.303 25.824 318.791 26.336 318.791 27.36V28.704ZM339.709 36V13.92C340.893 11.744 343.165 10.656 346.525 10.656H351.709L354.589 12.816V16.416H348.301C347.341 16.416 346.685 16.656 346.333 17.136V36H339.709ZM359.308 36V0.48H365.932V20.208L374.716 10.656H381.244L381.772 11.76L372.988 21.216L382.444 34.896L381.916 36H375.436L368.62 25.968L365.932 28.896V36H359.308ZM386.767 28.224V18.432C386.767 13.248 389.359 10.656 394.543 10.656H400.783C405.967 10.656 408.559 13.248 408.559 18.432V25.776H393.391V28.704C393.391 29.728 393.903 30.24 394.927 30.24H407.599V33.84L404.719 36H394.543C389.359 36 386.767 33.408 386.767 28.224ZM393.391 20.688H401.935V17.952C401.935 16.928 401.423 16.416 400.399 16.416H394.927C393.903 16.416 393.391 16.928 393.391 17.952V20.688ZM414.897 28.224V2.88H421.521V10.656H429.777V16.416H421.521V28.704C421.521 29.728 422.033 30.24 423.057 30.24H430.257V33.84L427.377 36H422.673C417.489 36 414.897 33.408 414.897 28.224ZM446.964 36V10.656H475.86C481.044 10.656 483.636 13.248 483.636 18.432V36H477.012V17.952C477.012 16.928 476.5 16.416 475.476 16.416H468.612V36H461.988V16.416H453.588V36H446.964ZM496.802 36C491.618 36 489.026 33.456 489.026 28.368C489.026 23.28 491.618 20.736 496.802 20.736H503.426V17.952C503.426 16.928 502.914 16.416 501.89 16.416H491.714V12.816L494.594 10.656H502.274C507.458 10.656 510.05 13.248 510.05 18.432V36H496.802ZM495.65 28.704C495.65 29.728 496.162 30.24 497.186 30.24H503.426V25.824H497.186C496.162 25.824 495.65 26.336 495.65 27.36V28.704ZM516.761 36V0.48H523.385V20.208L532.169 10.656H538.697L539.225 11.76L530.441 21.216L539.897 34.896L539.369 36H532.889L526.073 25.968L523.385 28.896V36H516.761ZM544.22 28.224V18.432C544.22 13.248 546.812 10.656 551.996 10.656H558.236C563.42 10.656 566.012 13.248 566.012 18.432V25.776H550.844V28.704C550.844 29.728 551.356 30.24 552.38 30.24H565.052V33.84L562.172 36H551.996C546.812 36 544.22 33.408 544.22 28.224ZM550.844 20.688H559.388V17.952C559.388 16.928 558.876 16.416 557.852 16.416H552.38C551.356 16.416 550.844 16.928 550.844 17.952V20.688ZM572.35 36V13.92C573.534 11.744 575.806 10.656 579.166 10.656H584.35L587.23 12.816V16.416H580.942C579.982 16.416 579.326 16.656 578.974 17.136V36H572.35ZM257.894 96V68.256C257.894 63.072 260.486 60.48 265.67 60.48H270.374L273.254 62.64V66.24H266.054C265.03 66.24 264.518 66.752 264.518 67.776V70.656H272.774V76.416H264.518V96H257.894ZM277.291 88.224V78.432C277.291 73.248 279.883 70.656 285.067 70.656H291.787C296.971 70.656 299.563 73.248 299.563 78.432V88.224C299.563 93.408 296.971 96 291.787 96H285.067C279.883 96 277.291 93.408 277.291 88.224ZM283.915 88.704C283.915 89.728 284.427 90.24 285.451 90.24H291.403C292.427 90.24 292.939 89.728 292.939 88.704V77.952C292.939 76.928 292.427 76.416 291.403 76.416H285.451C284.427 76.416 283.915 76.928 283.915 77.952V88.704ZM305.889 96V73.92C307.073 71.744 309.345 70.656 312.705 70.656H317.889L320.769 72.816V76.416H314.481C313.521 76.416 312.865 76.656 312.513 77.136V96H305.889ZM20.3188 156V122.88H27.8068L40.9588 144.624V122.88H47.8708V156H40.3828L27.2308 134.256V156H20.3188ZM55.7563 156V122.88H78.4123V129.12H62.6683V137.28H76.9723V143.52H62.6683V156H55.7563ZM81.0036 129.12V122.88H108.076V129.12H97.9956V156H91.0836V129.12H81.0036ZM108.772 144.192V138.528H123.172V144.192H108.772ZM128.158 148.224V138.432C128.158 133.248 130.75 130.656 135.934 130.656H144.862L147.742 132.816V136.416H136.318C135.294 136.416 134.782 136.928 134.782 137.952V148.704C134.782 149.728 135.294 150.24 136.318 150.24H147.742V153.84L144.862 156H135.934C130.75 156 128.158 153.408 128.158 148.224ZM153.002 148.224V138.432C153.002 133.248 155.594 130.656 160.778 130.656H167.498C172.682 130.656 175.274 133.248 175.274 138.432V148.224C175.274 153.408 172.682 156 167.498 156H160.778C155.594 156 153.002 153.408 153.002 148.224ZM159.626 148.704C159.626 149.728 160.138 150.24 161.162 150.24H167.114C168.138 150.24 168.65 149.728 168.65 148.704V137.952C168.65 136.928 168.138 136.416 167.114 136.416H161.162C160.138 136.416 159.626 136.928 159.626 137.952V148.704ZM181.6 146.784V120.48H188.224V147.456C188.224 149.44 189.248 150.544 191.296 150.768V156.48C184.832 156.48 181.6 153.248 181.6 146.784ZM196.459 146.784V120.48H203.083V147.456C203.083 149.44 204.107 150.544 206.155 150.768V156.48C199.691 156.48 196.459 153.248 196.459 146.784ZM217.943 156C212.759 156 210.167 153.456 210.167 148.368C210.167 143.28 212.759 140.736 217.943 140.736H224.567V137.952C224.567 136.928 224.055 136.416 223.031 136.416H212.855V132.816L215.735 130.656H223.415C228.599 130.656 231.191 133.248 231.191 138.432V156H217.943ZM216.791 148.704C216.791 149.728 217.303 150.24 218.327 150.24H224.567V145.824H218.327C217.303 145.824 216.791 146.336 216.791 147.36V148.704ZM237.709 148.224V122.88H244.333V130.656H252.589V136.416H244.333V148.704C244.333 149.728 244.845 150.24 245.869 150.24H253.069V153.84L250.189 156H245.485C240.301 156 237.709 153.408 237.709 148.224ZM257.861 148.224V138.432C257.861 133.248 260.453 130.656 265.637 130.656H271.877C277.061 130.656 279.653 133.248 279.653 138.432V145.776H264.485V148.704C264.485 149.728 264.997 150.24 266.021 150.24H278.693V153.84L275.813 156H265.637C260.453 156 257.861 153.408 257.861 148.224ZM264.485 140.688H273.029V137.952C273.029 136.928 272.517 136.416 271.493 136.416H266.021C264.997 136.416 264.485 136.928 264.485 137.952V140.688ZM285.991 156V133.92C287.175 131.744 289.447 130.656 292.807 130.656H297.991L300.871 132.816V136.416H294.583C293.623 136.416 292.967 136.656 292.615 137.136V156H285.991ZM311.552 156C306.368 156 303.776 153.456 303.776 148.368C303.776 143.28 306.368 140.736 311.552 140.736H318.176V137.952C318.176 136.928 317.664 136.416 316.64 136.416H306.464V132.816L309.344 130.656H317.024C322.208 130.656 324.8 133.248 324.8 138.432V156H311.552ZM310.4 148.704C310.4 149.728 310.912 150.24 311.936 150.24H318.176V145.824H311.936C310.912 145.824 310.4 146.336 310.4 147.36V148.704ZM331.319 146.784V120.48H337.943V147.456C337.943 149.44 338.967 150.544 341.015 150.768V156.48C334.551 156.48 331.319 153.248 331.319 146.784ZM346.226 126.48V120H353.138V126.48H346.226ZM346.37 156V130.656H352.994V156H346.37ZM358.477 156V151.008L370.333 136.416H358.957V130.656H378.829V135.648L367.021 150.24H379.309V156H358.477ZM384.377 148.224V138.432C384.377 133.248 386.969 130.656 392.153 130.656H398.393C403.577 130.656 406.169 133.248 406.169 138.432V145.776H391.001V148.704C391.001 149.728 391.513 150.24 392.537 150.24H405.209V153.84L402.329 156H392.153C386.969 156 384.377 153.408 384.377 148.224ZM391.001 140.688H399.545V137.952C399.545 136.928 399.033 136.416 398.009 136.416H392.537C391.513 136.416 391.001 136.928 391.001 137.952V140.688ZM412.314 148.224V138.432C412.314 133.248 414.906 130.656 420.09 130.656H427.482V120.48H434.106V156H420.09C414.906 156 412.314 153.408 412.314 148.224ZM418.938 148.704C418.938 149.728 419.45 150.24 420.474 150.24H427.482V136.416H420.474C419.45 136.416 418.938 136.928 418.938 137.952V148.704ZM452.35 146.784V120.48H458.974V147.456C458.974 149.44 459.998 150.544 462.046 150.768V156.48C455.582 156.48 452.35 153.248 452.35 146.784ZM467.017 148.224V138.432C467.017 133.248 469.609 130.656 474.793 130.656H481.513C486.697 130.656 489.289 133.248 489.289 138.432V148.224C489.289 153.408 486.697 156 481.513 156H474.793C469.609 156 467.017 153.408 467.017 148.224ZM473.641 148.704C473.641 149.728 474.153 150.24 475.177 150.24H481.129C482.153 150.24 482.665 149.728 482.665 148.704V137.952C482.665 136.928 482.153 136.416 481.129 136.416H475.177C474.153 136.416 473.641 136.928 473.641 137.952V148.704ZM502.24 156C497.056 156 494.464 153.456 494.464 148.368C494.464 143.28 497.056 140.736 502.24 140.736H508.864V137.952C508.864 136.928 508.352 136.416 507.328 136.416H497.152V132.816L500.032 130.656H507.712C512.896 130.656 515.488 133.248 515.488 138.432V156H502.24ZM501.088 148.704C501.088 149.728 501.6 150.24 502.624 150.24H508.864V145.824H502.624C501.6 145.824 501.088 146.336 501.088 147.36V148.704ZM522.198 156V130.656H536.214C541.398 130.656 543.99 133.248 543.99 138.432V156H537.366V137.952C537.366 136.928 536.854 136.416 535.83 136.416H528.822V156H522.198ZM549.834 153.84V150.24H560.874C561.962 150.24 562.506 149.632 562.506 148.416C562.506 147.168 562.058 146.464 561.162 146.304L555.978 145.44C551.882 144.736 549.834 142.368 549.834 138.336C549.834 133.216 552.426 130.656 557.61 130.656H565.05L567.93 132.816V136.416H557.994C556.906 136.416 556.362 137.024 556.362 138.24C556.362 139.52 556.858 140.24 557.85 140.4L562.986 141.264C567.05 141.936 569.082 144.272 569.082 148.272C569.082 153.424 566.474 156 561.258 156H552.714L549.834 153.84Z" fill="url(#paint0_linear_261_131)"/>
<defs>
<linearGradient id="paint0_linear_261_131" x1="617" y1="82.9871" x2="-29" y2="82.9871" gradientUnits="userSpaceOnUse">
<stop stop-color="#FF7401"/>
<stop offset="1" stop-color="#5001EB"/>
</linearGradient>
</defs>
</svg>
