<svg width="636" height="46" viewBox="0 0 636 46" fill="none" xmlns="http://www.w3.org/2000/svg">
<path d="M0.311 36V2.88H15.959C21.335 2.88 24.023 5.568 24.023 10.944V13.824C24.023 14.912 23.703 15.84 23.063 16.608L21.383 18.624L23.399 20.304C24.455 21.168 24.983 22.448 24.983 24.144V27.936C24.983 33.312 22.295 36 16.919 36H0.311ZM7.223 29.76H16.631C17.591 29.76 18.071 29.28 18.071 28.32V23.52C18.071 22.56 17.591 22.08 16.631 22.08H7.223V29.76ZM7.223 15.84H15.671C16.631 15.84 17.111 15.36 17.111 14.4V10.56C17.111 9.6 16.631 9.12 15.671 9.12H7.223V15.84ZM30.9515 36V13.92C32.1355 11.744 34.4075 10.656 37.7675 10.656H42.9515L45.8315 12.816V16.416H39.5435C38.5835 16.416 37.9275 16.656 37.5755 17.136V36H30.9515ZM50.4058 6.48V-2.86102e-06H57.3178V6.48H50.4058ZM50.5498 36V10.656H57.1738V36H50.5498ZM64.0966 36V10.656H78.1126C83.2966 10.656 85.8886 13.248 85.8886 18.432V36H79.2646V17.952C79.2646 16.928 78.7526 16.416 77.7286 16.416H70.7206V36H64.0966ZM92.0206 28.224V18.432C92.0206 13.248 94.6126 10.656 99.7966 10.656H113.813V37.824C113.813 43.008 111.221 45.6 106.037 45.6H97.0606L94.1806 43.44V39.84H105.653C106.677 39.84 107.189 39.328 107.189 38.304V36H99.7966C94.6126 36 92.0206 33.408 92.0206 28.224ZM98.6446 28.704C98.6446 29.728 99.1566 30.24 100.181 30.24H107.189V16.416H100.181C99.1566 16.416 98.6446 16.928 98.6446 17.952V28.704ZM120.39 6.48V-2.86102e-06H127.302V6.48H120.39ZM120.534 36V10.656H127.158V36H120.534ZM134.081 36V10.656H148.097C153.281 10.656 155.873 13.248 155.873 18.432V36H149.249V17.952C149.249 16.928 148.737 16.416 147.713 16.416H140.705V36H134.081ZM162.005 28.224V18.432C162.005 13.248 164.597 10.656 169.781 10.656H183.797V37.824C183.797 43.008 181.205 45.6 176.021 45.6H167.045L164.165 43.44V39.84H175.637C176.661 39.84 177.173 39.328 177.173 38.304V36H169.781C164.597 36 162.005 33.408 162.005 28.224ZM168.629 28.704C168.629 29.728 169.141 30.24 170.165 30.24H177.173V16.416H170.165C169.141 16.416 168.629 16.928 168.629 17.952V28.704ZM202.53 36V2.88H215.106C224.13 2.88 228.642 7.392 228.642 16.416V22.464C228.642 31.488 224.13 36 215.106 36H202.53ZM209.442 29.76H215.49C219.65 29.76 221.73 27.68 221.73 23.52V15.36C221.73 11.2 219.65 9.12 215.49 9.12H209.442V29.76ZM234.713 28.224V18.432C234.713 13.248 237.305 10.656 242.489 10.656H248.729C253.913 10.656 256.505 13.248 256.505 18.432V25.776H241.337V28.704C241.337 29.728 241.849 30.24 242.873 30.24H255.545V33.84L252.665 36H242.489C237.305 36 234.713 33.408 234.713 28.224ZM241.337 20.688H249.881V17.952C249.881 16.928 249.369 16.416 248.345 16.416H242.873C241.849 16.416 241.337 16.928 241.337 17.952V20.688ZM263.514 36V2.88H286.17V9.12H270.426V17.28H284.73V23.52H270.426V36H263.514ZM290.921 6.48V-2.86102e-06H297.833V6.48H290.921ZM291.065 36V10.656H297.689V36H291.065ZM315.952 28.224V10.656H322.576V28.704C322.576 29.728 323.088 30.24 324.112 30.24H331.12V10.656H337.744V36H323.728C318.544 36 315.952 33.408 315.952 28.224ZM344.452 28.224V2.88H351.076V10.656H359.332V16.416H351.076V28.704C351.076 29.728 351.588 30.24 352.612 30.24H359.812V33.84L356.932 36H352.228C347.044 36 344.452 33.408 344.452 28.224ZM364.843 6.48V-2.86102e-06H371.755V6.48H364.843ZM364.987 36V10.656H371.611V36H364.987ZM378.342 26.784V0.48H384.966V27.456C384.966 29.44 385.99 30.544 388.038 30.768V36.48C381.574 36.48 378.342 33.248 378.342 26.784ZM393.25 6.48V-2.86102e-06H400.162V6.48H393.25ZM393.394 36V10.656H400.018V36H393.394ZM406.748 28.224V2.88H413.372V10.656H421.628V16.416H413.372V28.704C413.372 29.728 413.884 30.24 414.908 30.24H422.108V33.84L419.228 36H414.524C409.34 36 406.748 33.408 406.748 28.224ZM424.692 11.664L425.364 10.656H431.076L436.932 30.24H437.412L443.268 10.656H448.98L449.652 11.664L439.044 45.6H433.332L432.66 44.592L435.54 36H432.324L424.692 11.664ZM465.295 28.224V2.88H471.919V10.656H480.175V16.416H471.919V28.704C471.919 29.728 472.431 30.24 473.455 30.24H480.655V33.84L477.775 36H473.071C467.887 36 465.295 33.408 465.295 28.224ZM485.447 28.224V18.432C485.447 13.248 488.039 10.656 493.223 10.656H499.943C505.127 10.656 507.719 13.248 507.719 18.432V28.224C507.719 33.408 505.127 36 499.943 36H493.223C488.039 36 485.447 33.408 485.447 28.224ZM492.071 28.704C492.071 29.728 492.583 30.24 493.607 30.24H499.559C500.583 30.24 501.095 29.728 501.095 28.704V17.952C501.095 16.928 500.583 16.416 499.559 16.416H493.607C492.583 16.416 492.071 16.928 492.071 17.952V28.704ZM526.249 36V2.88H533.737L546.889 24.624V2.88H553.801V36H546.312L533.161 14.256V36H526.249ZM561.686 36V2.88H584.342V9.12H568.598V17.28H582.902V23.52H568.598V36H561.686ZM586.933 9.12V2.88H614.005V9.12H603.925V36H597.013V9.12H586.933ZM615.842 33.84V30.24H626.882C627.97 30.24 628.514 29.632 628.514 28.416C628.514 27.168 628.066 26.464 627.17 26.304L621.986 25.44C617.89 24.736 615.842 22.368 615.842 18.336C615.842 13.216 618.434 10.656 623.618 10.656H631.058L633.938 12.816V16.416H624.002C622.914 16.416 622.37 17.024 622.37 18.24C622.37 19.52 622.866 20.24 623.858 20.4L628.994 21.264C633.058 21.936 635.09 24.272 635.09 28.272C635.09 33.424 632.482 36 627.266 36H618.722L615.842 33.84Z" fill="url(#paint0_linear_240_168)"/>
<defs>
<linearGradient id="paint0_linear_240_168" x1="833" y1="22.1964" x2="-199" y2="22.1963" gradientUnits="userSpaceOnUse">
<stop stop-color="#FF7401"/>
<stop offset="1" stop-color="#5001EB"/>
</linearGradient>
</defs>
</svg>
