<svg width="25" height="25" viewBox="0 0 25 25" fill="none" xmlns="http://www.w3.org/2000/svg">
<path fill-rule="evenodd" clip-rule="evenodd" d="M18.3428 17.4971C18.2603 17.4989 18.1776 17.4999 18.0947 17.4999C12.0196 17.4999 7.09473 12.575 7.09473 6.49987C7.09473 6.41697 7.09565 6.33428 7.09748 6.2518C5.26684 7.71839 4.09473 9.97327 4.09473 12.4998C4.09473 16.9181 7.67645 20.4998 12.0947 20.4998C14.6213 20.4998 16.8762 19.3277 18.3428 17.4971ZM19.5608 15.381C19.0837 15.4592 18.594 15.4999 18.0947 15.4999C13.1242 15.4999 9.09473 11.4704 9.09473 6.49987C9.09473 6.00062 9.13538 5.51086 9.21355 5.03373C9.34567 4.22732 9.58497 3.45697 9.91634 2.73779C9.05499 2.92915 8.23545 3.23161 7.47355 3.62934C4.27687 5.29809 2.09473 8.64413 2.09473 12.4998C2.09473 18.0227 6.57188 22.4998 12.0947 22.4998C15.9504 22.4998 19.2964 20.3177 20.9652 17.1211C21.3629 16.3592 21.6654 15.5396 21.8568 14.6783C21.1376 15.0096 20.3672 15.2489 19.5608 15.381Z" fill="#F2F2F2"/>
</svg>
