<svg width="238" height="25" viewBox="0 0 238 25" fill="none" xmlns="http://www.w3.org/2000/svg">
<path d="M0.871625 18.944V15.296H4.10363V19.264C4.10363 20.4587 4.71163 21.056 5.92763 21.056H10.7276C11.9436 21.056 12.5516 20.4587 12.5516 19.264V4.864H5.67163V1.92H15.7836V18.944C15.7836 22.3147 14.109 24 10.7596 24H5.89563C2.54629 24 0.871625 22.3147 0.871625 18.944ZM20.6619 19.072V12.192C20.6619 8.928 22.2939 7.296 25.5579 7.296H30.0379C33.3019 7.296 34.9339 8.928 34.9339 12.192V19.072C34.9339 22.3573 33.3019 24 30.0379 24H25.5579C22.2939 24 20.6619 22.3573 20.6619 19.072ZM23.7659 19.392C23.7659 20.6507 24.3952 21.28 25.6539 21.28H29.9739C31.2112 21.28 31.8299 20.6507 31.8299 19.392V11.872C31.8299 10.6347 31.2112 10.016 29.9739 10.016H25.6539C24.3952 10.016 23.7659 10.6347 23.7659 11.872V19.392ZM39.5399 4.288V0.895998H42.8679V4.288H39.5399ZM39.6679 24V7.296H42.7719V24H39.6679ZM47.7616 24V7.296H56.8176C60.0816 7.296 61.7136 8.928 61.7136 12.192V24H58.6096V11.872C58.6096 10.6347 57.991 10.016 56.7536 10.016H50.8656V24H47.7616ZM74.1336 19.072V1.92H77.2376V7.296H83.1576V10.016H77.2376V19.392C77.2376 20.6507 77.867 21.28 79.1256 21.28H83.4776V22.912L82.0056 24H79.0296C75.7656 24 74.1336 22.3573 74.1336 19.072ZM87.1366 24V0.32H90.2406V7.296H96.1926C99.4566 7.296 101.089 8.928 101.089 12.192V24H97.9846V11.872C97.9846 10.6347 97.366 10.016 96.1286 10.016H90.2406V24H87.1366ZM105.693 19.072V12.192C105.693 8.928 107.325 7.296 110.589 7.296H114.749C118.013 7.296 119.645 8.928 119.645 12.192V16.8H108.797V19.392C108.797 20.6507 109.426 21.28 110.685 21.28H119.005V22.912L117.565 24H110.589C107.325 24 105.693 22.3573 105.693 19.072ZM108.797 14.368H116.541V11.872C116.541 10.6347 115.922 10.016 114.685 10.016H110.685C109.426 10.016 108.797 10.6347 108.797 11.872V14.368ZM130.314 7.808L130.698 7.296H133.258L136.426 21.28H136.81L140.586 7.296H144.074L147.85 21.28H148.234L151.402 7.296H153.962L154.314 7.808L150.57 24H145.738L142.314 10.912L138.922 24H134.09L130.314 7.808ZM161.294 24C158.008 24 156.366 22.368 156.366 19.104C156.366 15.84 158.008 14.208 161.294 14.208H166.702V11.872C166.702 10.6347 166.083 10.016 164.846 10.016H157.998V8.384L159.47 7.296H164.91C168.174 7.296 169.806 8.928 169.806 12.192V24H161.294ZM159.47 19.392C159.47 20.6507 160.099 21.28 161.358 21.28H166.702V16.64H161.358C160.099 16.64 159.47 17.2693 159.47 18.528V19.392ZM174.54 4.288V0.895998H177.868V4.288H174.54ZM174.668 24V7.296H177.772V24H174.668ZM182.634 19.072V1.92H185.738V7.296H191.658V10.016H185.738V19.392C185.738 20.6507 186.367 21.28 187.626 21.28H191.978V22.912L190.506 24H187.53C184.266 24 182.634 22.3573 182.634 19.072ZM195.509 18.976V0.32H198.613V19.296C198.613 20.7253 199.338 21.4933 200.789 21.6V24.288C197.269 24.288 195.509 22.5173 195.509 18.976ZM204.321 4.288V0.895998H207.649V4.288H204.321ZM204.449 24V7.296H207.553V24H204.449ZM211.903 22.912V21.28H219.295C220.554 21.28 221.183 20.64 221.183 19.36C221.183 18.0373 220.671 17.2907 219.647 17.12L215.967 16.512C213.258 16.0427 211.903 14.5493 211.903 12.032C211.903 8.87467 213.546 7.296 216.831 7.296H222.047L223.519 8.384V10.016H216.895C215.615 10.016 214.975 10.656 214.975 11.936C214.975 13.1307 215.508 13.824 216.575 14.016L220.287 14.624C222.954 15.072 224.287 16.608 224.287 19.232C224.287 22.4107 222.634 24 219.327 24H213.375L211.903 22.912ZM228.477 19.072V1.92H231.581V7.296H237.501V10.016H231.581V19.392C231.581 20.6507 232.211 21.28 233.469 21.28H237.821V22.912L236.349 24H233.373C230.109 24 228.477 22.3573 228.477 19.072Z" fill="url(#paint0_linear_240_156)"/>
<defs>
<linearGradient id="paint0_linear_240_156" x1="269.192" y1="14.3504" x2="-29.5167" y2="14.3504" gradientUnits="userSpaceOnUse">
<stop stop-color="#FF7401"/>
<stop offset="1" stop-color="#5001EB"/>
</linearGradient>
</defs>
</svg>
