<svg width="179" height="19" viewBox="0 0 179 19" fill="none" xmlns="http://www.w3.org/2000/svg">
<path d="M0.352449 14.208V11.472H2.77645V14.448C2.77645 15.344 3.23245 15.792 4.14445 15.792H7.74445C8.65645 15.792 9.11245 15.344 9.11245 14.448V3.648H3.95245V1.44H11.5365V14.208C11.5365 16.736 10.2805 18 7.76845 18H4.12045C1.60845 18 0.352449 16.736 0.352449 14.208ZM15.1951 14.304V9.144C15.1951 6.696 16.4191 5.472 18.8671 5.472H22.2271C24.6751 5.472 25.8991 6.696 25.8991 9.144V14.304C25.8991 16.768 24.6751 18 22.2271 18H18.8671C16.4191 18 15.1951 16.768 15.1951 14.304ZM17.5231 14.544C17.5231 15.488 17.9951 15.96 18.9391 15.96H22.1791C23.1071 15.96 23.5711 15.488 23.5711 14.544V8.904C23.5711 7.976 23.1071 7.512 22.1791 7.512H18.9391C17.9951 7.512 17.5231 7.976 17.5231 8.904V14.544ZM29.3536 3.216V0.671999H31.8496V3.216H29.3536ZM29.4496 18V5.472H31.7776V18H29.4496ZM35.5199 18V5.472H42.3119C44.7599 5.472 45.9839 6.696 45.9839 9.144V18H43.6559V8.904C43.6559 7.976 43.1919 7.512 42.2639 7.512H37.8479V18H35.5199ZM55.2989 14.304V1.44H57.6269V5.472H62.0669V7.512H57.6269V14.544C57.6269 15.488 58.0989 15.96 59.0429 15.96H62.3069V17.184L61.2029 18H58.9709C56.5229 18 55.2989 16.768 55.2989 14.304ZM65.0512 18V0.24H67.3792V5.472H71.8432C74.2912 5.472 75.5152 6.696 75.5152 9.144V18H73.1872V8.904C73.1872 7.976 72.7232 7.512 71.7952 7.512H67.3792V18H65.0512ZM78.9686 14.304V9.144C78.9686 6.696 80.1926 5.472 82.6406 5.472H85.7606C88.2086 5.472 89.4326 6.696 89.4326 9.144V12.6H81.2966V14.544C81.2966 15.488 81.7686 15.96 82.7126 15.96H88.9526V17.184L87.8726 18H82.6406C80.1926 18 78.9686 16.768 78.9686 14.304ZM81.2966 10.776H87.1046V8.904C87.1046 7.976 86.6406 7.512 85.7126 7.512H82.7126C81.7686 7.512 81.2966 7.976 81.2966 8.904V10.776ZM97.4343 5.856L97.7223 5.472H99.6423L102.018 15.96H102.306L105.138 5.472H107.754L110.586 15.96H110.874L113.25 5.472H115.17L115.434 5.856L112.626 18H109.002L106.434 8.184L103.89 18H100.266L97.4343 5.856ZM120.669 18C118.205 18 116.973 16.776 116.973 14.328C116.973 11.88 118.205 10.656 120.669 10.656H124.725V8.904C124.725 7.976 124.261 7.512 123.333 7.512H118.197V6.288L119.301 5.472H123.381C125.829 5.472 127.053 6.696 127.053 9.144V18H120.669ZM119.301 14.544C119.301 15.488 119.773 15.96 120.717 15.96H124.725V12.48H120.717C119.773 12.48 119.301 12.952 119.301 13.896V14.544ZM130.604 3.216V0.671999H133.1V3.216H130.604ZM130.7 18V5.472H133.028V18H130.7ZM136.674 14.304V1.44H139.002V5.472H143.442V7.512H139.002V14.544C139.002 15.488 139.474 15.96 140.418 15.96H143.682V17.184L142.578 18H140.346C137.898 18 136.674 16.768 136.674 14.304ZM146.33 14.232V0.24H148.658V14.472C148.658 15.544 149.202 16.12 150.29 16.2V18.216C147.65 18.216 146.33 16.888 146.33 14.232ZM152.94 3.216V0.671999H155.436V3.216H152.94ZM153.036 18V5.472H155.364V18H153.036ZM158.626 17.184V15.96H164.17C165.114 15.96 165.586 15.48 165.586 14.52C165.586 13.528 165.202 12.968 164.434 12.84L161.674 12.384C159.642 12.032 158.626 10.912 158.626 9.024C158.626 6.656 159.858 5.472 162.322 5.472H166.234L167.338 6.288V7.512H162.37C161.41 7.512 160.93 7.992 160.93 8.952C160.93 9.848 161.33 10.368 162.13 10.512L164.914 10.968C166.914 11.304 167.914 12.456 167.914 14.424C167.914 16.808 166.674 18 164.194 18H159.73L158.626 17.184ZM171.057 14.304V1.44H173.385V5.472H177.825V7.512H173.385V14.544C173.385 15.488 173.857 15.96 174.801 15.96H178.065V17.184L176.961 18H174.729C172.281 18 171.057 16.768 171.057 14.304Z" fill="url(#paint0_linear_261_115)"/>
<defs>
<linearGradient id="paint0_linear_261_115" x1="212.298" y1="11.3504" x2="-33.0248" y2="11.3504" gradientUnits="userSpaceOnUse">
<stop stop-color="#FF7401"/>
<stop offset="1" stop-color="#5001EB"/>
</linearGradient>
</defs>
</svg>
