<svg width="25" height="25" viewBox="0 0 25 25" fill="none" xmlns="http://www.w3.org/2000/svg">
<path d="M13.0929 22.5H11.0929V19.5H13.0929V22.5ZM18.4569 20.278L16.3359 18.157L17.7499 16.743L19.8719 18.865L18.4589 20.278H18.4569ZM5.7289 20.278L4.3139 18.864L6.4339 16.742L7.8489 18.156L5.7289 20.277V20.278ZM12.0929 17.507C9.32787 17.5059 7.08716 15.2637 7.0879 12.4987C7.08863 9.73364 9.33053 7.49263 12.0956 7.493C14.8606 7.49337 17.1019 9.73497 17.1019 12.5C17.0991 15.2649 14.8578 17.5053 12.0929 17.507ZM12.0929 9.493C10.4324 9.4941 9.08716 10.8409 9.0879 12.5013C9.08863 14.1618 10.4351 15.5074 12.0956 15.507C13.756 15.5066 15.1019 14.1605 15.1019 12.5C15.1002 10.8392 13.7537 9.49355 12.0929 9.493ZM22.0929 13.5H19.0929V11.5H22.0929V13.5ZM5.0929 13.5H2.0929V11.5H5.0929V13.5ZM17.7489 8.258L16.3359 6.843L18.4569 4.721L19.8719 6.136L17.7499 8.257L17.7489 8.258ZM6.4359 8.258L4.3159 6.137L5.7309 4.723L7.8509 6.845L6.4369 8.257L6.4359 8.258ZM13.0929 5.5H11.0929V2.5H13.0929V5.5Z" fill="#BDBDBD"/>
</svg>
