<svg width="25" height="25" viewBox="0 0 25 25" fill="none" xmlns="http://www.w3.org/2000/svg">
<path d="M13.0928 22.5H11.0928V19.5H13.0928V22.5ZM18.4568 20.278L16.3358 18.157L17.7498 16.743L19.8718 18.865L18.4588 20.278H18.4568ZM5.72883 20.278L4.31383 18.864L6.43383 16.742L7.84883 18.156L5.72883 20.277V20.278ZM12.0928 17.507C9.32781 17.5059 7.0871 15.2637 7.08783 12.4987C7.08857 9.73364 9.33047 7.49263 12.0955 7.493C14.8605 7.49337 17.1018 9.73497 17.1018 12.5C17.0991 15.2649 14.8578 17.5053 12.0928 17.507ZM12.0928 9.493C10.4324 9.4941 9.0871 10.8409 9.08783 12.5013C9.08857 14.1618 10.435 15.5074 12.0955 15.507C13.756 15.5066 15.1018 14.1605 15.1018 12.5C15.1002 10.8392 13.7537 9.49355 12.0928 9.493ZM22.0928 13.5H19.0928V11.5H22.0928V13.5ZM5.09283 13.5H2.09283V11.5H5.09283V13.5ZM17.7488 8.258L16.3358 6.843L18.4568 4.721L19.8718 6.136L17.7498 8.257L17.7488 8.258ZM6.43583 8.258L4.31583 6.137L5.73083 4.723L7.85083 6.845L6.43683 8.257L6.43583 8.258ZM13.0928 5.5H11.0928V2.5H13.0928V5.5Z" fill="#BDBDBD"/>
</svg>
