<svg width="338" height="72" viewBox="0 0 338 72" fill="none" xmlns="http://www.w3.org/2000/svg">
<path d="M0.155125 27V2.16H11.8911C15.9231 2.16 17.9391 4.176 17.9391 8.208V10.368C17.9391 11.184 17.6991 11.88 17.2191 12.456L15.9591 13.968L17.4711 15.228C18.2631 15.876 18.6591 16.836 18.6591 18.108V20.952C18.6591 24.984 16.6431 27 12.6111 27H0.155125ZM5.33913 22.32H12.3951C13.1151 22.32 13.4751 21.96 13.4751 21.24V17.64C13.4751 16.92 13.1151 16.56 12.3951 16.56H5.33913V22.32ZM5.33913 11.88H11.6751C12.3951 11.88 12.7551 11.52 12.7551 10.8V7.92C12.7551 7.2 12.3951 6.84 11.6751 6.84H5.33913V11.88ZM23.1355 27V10.44C24.0235 8.808 25.7275 7.992 28.2475 7.992H32.1355L34.2955 9.612V12.312H29.5795C28.8595 12.312 28.3675 12.492 28.1035 12.852V27H23.1355ZM37.7262 4.86V-2.14577e-06H42.9102V4.86H37.7262ZM37.8342 27V7.992H42.8022V27H37.8342ZM47.9943 27V7.992H58.5063C62.3943 7.992 64.3383 9.936 64.3383 13.824V27H59.3703V13.464C59.3703 12.696 58.9863 12.312 58.2183 12.312H52.9623V27H47.9943ZM68.9373 21.168V13.824C68.9373 9.936 70.8813 7.992 74.7693 7.992H85.2813V28.368C85.2813 32.256 83.3373 34.2 79.4493 34.2H72.7173L70.5573 32.58V29.88H79.1613C79.9293 29.88 80.3133 29.496 80.3133 28.728V27H74.7693C70.8813 27 68.9373 25.056 68.9373 21.168ZM73.9053 21.528C73.9053 22.296 74.2893 22.68 75.0573 22.68H80.3133V12.312H75.0573C74.2893 12.312 73.9053 12.696 73.9053 13.464V21.528ZM90.2145 4.86V-2.14577e-06H95.3985V4.86H90.2145ZM90.3225 27V7.992H95.2905V27H90.3225ZM100.483 27V7.992H110.995C114.883 7.992 116.827 9.936 116.827 13.824V27H111.859V13.464C111.859 12.696 111.475 12.312 110.707 12.312H105.451V27H100.483ZM121.426 21.168V13.824C121.426 9.936 123.37 7.992 127.258 7.992H137.77V28.368C137.77 32.256 135.826 34.2 131.938 34.2H125.206L123.046 32.58V29.88H131.65C132.418 29.88 132.802 29.496 132.802 28.728V27H127.258C123.37 27 121.426 25.056 121.426 21.168ZM126.394 21.528C126.394 22.296 126.778 22.68 127.546 22.68H132.802V12.312H127.546C126.778 12.312 126.394 12.696 126.394 13.464V21.528ZM151.819 27V2.16H161.251C168.019 2.16 171.403 5.544 171.403 12.312V16.848C171.403 23.616 168.019 27 161.251 27H151.819ZM157.003 22.32H161.539C164.659 22.32 166.219 20.76 166.219 17.64V11.52C166.219 8.4 164.659 6.84 161.539 6.84H157.003V22.32ZM175.956 21.168V13.824C175.956 9.936 177.9 7.992 181.788 7.992H186.468C190.356 7.992 192.3 9.936 192.3 13.824V19.332H180.924V21.528C180.924 22.296 181.308 22.68 182.076 22.68H191.58V25.38L189.42 27H181.788C177.9 27 175.956 25.056 175.956 21.168ZM180.924 15.516H187.332V13.464C187.332 12.696 186.948 12.312 186.18 12.312H182.076C181.308 12.312 180.924 12.696 180.924 13.464V15.516ZM197.557 27V2.16H214.549V6.84H202.741V12.96H213.469V17.64H202.741V27H197.557ZM218.113 4.86V-2.14577e-06H223.297V4.86H218.113ZM218.221 27V7.992H223.189V27H218.221ZM236.886 21.168V7.992H241.854V21.528C241.854 22.296 242.238 22.68 243.006 22.68H248.262V7.992H253.23V27H242.718C238.83 27 236.886 25.056 236.886 21.168ZM258.261 21.168V2.16H263.229V7.992H269.421V12.312H263.229V21.528C263.229 22.296 263.613 22.68 264.381 22.68H269.781V25.38L267.621 27H264.093C260.205 27 258.261 25.056 258.261 21.168ZM273.554 4.86V-2.14577e-06H278.738V4.86H273.554ZM273.662 27V7.992H278.63V27H273.662ZM283.678 20.088V0.36H288.646V20.592C288.646 22.08 289.414 22.908 290.95 23.076V27.36C286.102 27.36 283.678 24.936 283.678 20.088ZM294.859 4.86V-2.14577e-06H300.043V4.86H294.859ZM294.967 27V7.992H299.935V27H294.967ZM304.983 21.168V2.16H309.951V7.992H316.143V12.312H309.951V21.528C309.951 22.296 310.335 22.68 311.103 22.68H316.503V25.38L314.343 27H310.815C306.927 27 304.983 25.056 304.983 21.168ZM318.441 8.748L318.945 7.992H323.229L327.621 22.68H327.981L332.373 7.992H336.657L337.161 8.748L329.205 34.2H324.921L324.417 33.444L326.577 27H324.165L318.441 8.748ZM104.1 66.168V47.16H109.068V52.992H115.26V57.312H109.068V66.528C109.068 67.296 109.452 67.68 110.22 67.68H115.62V70.38L113.46 72H109.932C106.044 72 104.1 70.056 104.1 66.168ZM119.214 66.168V58.824C119.214 54.936 121.158 52.992 125.046 52.992H130.086C133.974 52.992 135.918 54.936 135.918 58.824V66.168C135.918 70.056 133.974 72 130.086 72H125.046C121.158 72 119.214 70.056 119.214 66.168ZM124.182 66.528C124.182 67.296 124.566 67.68 125.334 67.68H129.798C130.566 67.68 130.95 67.296 130.95 66.528V58.464C130.95 57.696 130.566 57.312 129.798 57.312H125.334C124.566 57.312 124.182 57.696 124.182 58.464V66.528ZM149.815 72V47.16H155.431L165.295 63.468V47.16H170.479V72H164.863L154.999 55.692V72H149.815ZM176.393 72V47.16H193.385V51.84H181.577V57.96H192.305V62.64H181.577V72H176.393ZM195.329 51.84V47.16H215.633V51.84H208.073V72H202.889V51.84H195.329ZM217.01 70.38V67.68H225.29C226.106 67.68 226.514 67.224 226.514 66.312C226.514 65.376 226.178 64.848 225.506 64.728L221.618 64.08C218.546 63.552 217.01 61.776 217.01 58.752C217.01 54.912 218.954 52.992 222.842 52.992H228.422L230.582 54.612V57.312H223.13C222.314 57.312 221.906 57.768 221.906 58.68C221.906 59.64 222.278 60.18 223.022 60.3L226.874 60.948C229.922 61.452 231.446 63.204 231.446 66.204C231.446 70.068 229.49 72 225.578 72H219.17L217.01 70.38Z" fill="url(#paint0_linear_1_34)"/>
<defs>
<linearGradient id="paint0_linear_1_34" x1="339" y1="39.1964" x2="-4" y2="39.1964" gradientUnits="userSpaceOnUse">
<stop stop-color="#FF7401"/>
<stop offset="1" stop-color="#5001EB"/>
</linearGradient>
</defs>
</svg>
