<svg width="660" height="46" viewBox="0 0 660 46" fill="none" xmlns="http://www.w3.org/2000/svg">
<path d="M0.0236875 4.176L0.983688 2.88H6.64769L11.9757 29.76H12.5037L18.2157 6.048H25.0317L30.7437 29.76H31.2717L36.5997 2.88H42.2637L43.2237 4.176L36.7437 36H25.7517L21.6237 18.48L17.4957 36H6.50369L0.0236875 4.176ZM46.7048 28.224V18.432C46.7048 13.248 49.2968 10.656 54.4808 10.656H61.2008C66.3848 10.656 68.9768 13.248 68.9768 18.432V28.224C68.9768 33.408 66.3848 36 61.2008 36H54.4808C49.2968 36 46.7048 33.408 46.7048 28.224ZM53.3288 28.704C53.3288 29.728 53.8408 30.24 54.8648 30.24H60.8168C61.8408 30.24 62.3528 29.728 62.3528 28.704V17.952C62.3528 16.928 61.8408 16.416 60.8168 16.416H54.8648C53.8408 16.416 53.3288 16.928 53.3288 17.952V28.704ZM75.3031 36V13.92C76.4871 11.744 78.7591 10.656 82.1191 10.656H87.3031L90.1831 12.816V16.416H83.8951C82.9351 16.416 82.2791 16.656 81.9271 17.136V36H75.3031ZM94.9013 36V0.48H101.525V20.208L110.309 10.656H116.837L117.365 11.76L108.581 21.216L118.037 34.896L117.509 36H111.029L104.213 25.968L101.525 28.896V36H94.9013ZM122.601 6.48V-2.86102e-06H129.513V6.48H122.601ZM122.745 36V10.656H129.369V36H122.745ZM136.292 36V10.656H150.308C155.492 10.656 158.084 13.248 158.084 18.432V36H151.46V17.952C151.46 16.928 150.948 16.416 149.924 16.416H142.916V36H136.292ZM164.216 28.224V18.432C164.216 13.248 166.808 10.656 171.992 10.656H186.008V37.824C186.008 43.008 183.416 45.6 178.232 45.6H169.256L166.376 43.44V39.84H177.848C178.872 39.84 179.384 39.328 179.384 38.304V36H171.992C166.808 36 164.216 33.408 164.216 28.224ZM170.84 28.704C170.84 29.728 171.352 30.24 172.376 30.24H179.384V16.416H172.376C171.352 16.416 170.84 16.928 170.84 17.952V28.704ZM201.861 11.664L202.581 10.656H208.149L211.989 30.24H212.325L216.933 10.656H224.277L228.933 30.24H229.269L233.109 10.656H238.677L239.397 11.664L234.309 36H224.421L220.629 18.576L216.837 36H206.949L201.861 11.664ZM243.773 6.48V-2.86102e-06H250.685V6.48H243.773ZM243.917 36V10.656H250.541V36H243.917ZM257.272 28.224V2.88H263.896V10.656H272.152V16.416H263.896V28.704C263.896 29.728 264.408 30.24 265.432 30.24H272.632V33.84L269.752 36H265.048C259.864 36 257.272 33.408 257.272 28.224ZM277.808 36V0.48H284.432V10.656H291.824C297.008 10.656 299.6 13.248 299.6 18.432V36H292.976V17.952C292.976 16.928 292.464 16.416 291.44 16.416H284.432V36H277.808ZM317.647 28.224V2.88H324.271V10.656H332.527V16.416H324.271V28.704C324.271 29.728 324.783 30.24 325.807 30.24H333.007V33.84L330.127 36H325.423C320.239 36 317.647 33.408 317.647 28.224ZM338.183 36V0.48H344.807V10.656H352.199C357.383 10.656 359.975 13.248 359.975 18.432V36H353.351V17.952C353.351 16.928 352.839 16.416 351.815 16.416H344.807V36H338.183ZM366.299 28.224V18.432C366.299 13.248 368.891 10.656 374.075 10.656H380.315C385.499 10.656 388.091 13.248 388.091 18.432V25.776H372.923V28.704C372.923 29.728 373.435 30.24 374.459 30.24H387.131V33.84L384.251 36H374.075C368.891 36 366.299 33.408 366.299 28.224ZM372.923 20.688H381.467V17.952C381.467 16.928 380.955 16.416 379.931 16.416H374.459C373.435 16.416 372.923 16.928 372.923 17.952V20.688ZM405.767 28.224V18.432C405.767 13.248 408.359 10.656 413.543 10.656H422.471L425.351 12.816V16.416H413.927C412.903 16.416 412.391 16.928 412.391 17.952V28.704C412.391 29.728 412.903 30.24 413.927 30.24H425.351V33.84L422.471 36H413.543C408.359 36 405.767 33.408 405.767 28.224ZM430.611 28.224V18.432C430.611 13.248 433.203 10.656 438.387 10.656H445.107C450.291 10.656 452.883 13.248 452.883 18.432V28.224C452.883 33.408 450.291 36 445.107 36H438.387C433.203 36 430.611 33.408 430.611 28.224ZM437.235 28.704C437.235 29.728 437.747 30.24 438.771 30.24H444.723C445.747 30.24 446.259 29.728 446.259 28.704V17.952C446.259 16.928 445.747 16.416 444.723 16.416H438.771C437.747 16.416 437.235 16.928 437.235 17.952V28.704ZM459.401 36V10.656H488.297C493.481 10.656 496.073 13.248 496.073 18.432V36H489.449V17.952C489.449 16.928 488.937 16.416 487.913 16.416H481.049V36H474.425V16.416H466.025V36H459.401ZM502.808 36V10.656H531.704C536.888 10.656 539.48 13.248 539.48 18.432V36H532.856V17.952C532.856 16.928 532.344 16.416 531.32 16.416H524.456V36H517.832V16.416H509.432V36H502.808ZM546.022 28.224V10.656H552.646V28.704C552.646 29.728 553.158 30.24 554.182 30.24H561.19V10.656H567.814V36H553.798C548.614 36 546.022 33.408 546.022 28.224ZM574.714 36V10.656H588.73C593.914 10.656 596.506 13.248 596.506 18.432V36H589.882V17.952C589.882 16.928 589.37 16.416 588.346 16.416H581.338V36H574.714ZM603.07 6.48V-2.86102e-06H609.982V6.48H603.07ZM603.214 36V10.656H609.838V36H603.214ZM616.569 28.224V2.88H623.193V10.656H631.449V16.416H623.193V28.704C623.193 29.728 623.705 30.24 624.729 30.24H631.929V33.84L629.049 36H624.345C619.161 36 616.569 33.408 616.569 28.224ZM634.512 11.664L635.184 10.656H640.896L646.752 30.24H647.232L653.088 10.656H658.8L659.472 11.664L648.864 45.6H643.152L642.48 44.592L645.36 36H642.144L634.512 11.664Z" fill="url(#paint0_linear_1_68)"/>
<defs>
<linearGradient id="paint0_linear_1_68" x1="666" y1="22.2351" x2="-7" y2="22.2351" gradientUnits="userSpaceOnUse">
<stop stop-color="#FF7401"/>
<stop offset="1" stop-color="#5001EB"/>
</linearGradient>
</defs>
</svg>
