<svg width="223" height="24" viewBox="0 0 223 24" fill="none" xmlns="http://www.w3.org/2000/svg">
<path d="M0.310801 18.26V14.84H3.3408V18.56C3.3408 19.68 3.9108 20.24 5.0508 20.24H9.5508C10.6908 20.24 11.2608 19.68 11.2608 18.56V5.06H4.8108V2.3H14.2908V18.26C14.2908 21.42 12.7208 23 9.5808 23H5.0208C1.8808 23 0.310801 21.42 0.310801 18.26ZM18.8642 18.38V11.93C18.8642 8.87 20.3942 7.34 23.4542 7.34H27.6542C30.7142 7.34 32.2442 8.87 32.2442 11.93V18.38C32.2442 21.46 30.7142 23 27.6542 23H23.4542C20.3942 23 18.8642 21.46 18.8642 18.38ZM21.7742 18.68C21.7742 19.86 22.3642 20.45 23.5442 20.45H27.5942C28.7542 20.45 29.3342 19.86 29.3342 18.68V11.63C29.3342 10.47 28.7542 9.89 27.5942 9.89H23.5442C22.3642 9.89 21.7742 10.47 21.7742 11.63V18.68ZM36.5623 4.52V1.34H39.6823V4.52H36.5623ZM36.6823 23V7.34H39.5923V23H36.6823ZM44.2702 23V7.34H52.7602C55.8202 7.34 57.3502 8.87 57.3502 11.93V23H54.4402V11.63C54.4402 10.47 53.8602 9.89 52.7002 9.89H47.1802V23H44.2702ZM68.9939 18.38V2.3H71.9039V7.34H77.4539V9.89H71.9039V18.68C71.9039 19.86 72.4939 20.45 73.6739 20.45H77.7539V21.98L76.3739 23H73.5839C70.5239 23 68.9939 21.46 68.9939 18.38ZM81.1842 23V0.8H84.0942V7.34H89.6742C92.7342 7.34 94.2642 8.87 94.2642 11.93V23H91.3542V11.63C91.3542 10.47 90.7742 9.89 89.6142 9.89H84.0942V23H81.1842ZM98.581 18.38V11.93C98.581 8.87 100.111 7.34 103.171 7.34H107.071C110.131 7.34 111.661 8.87 111.661 11.93V16.25H101.491V18.68C101.491 19.86 102.081 20.45 103.261 20.45H111.061V21.98L109.711 23H103.171C100.111 23 98.581 21.46 98.581 18.38ZM101.491 13.97H108.751V11.63C108.751 10.47 108.171 9.89 107.011 9.89H103.261C102.081 9.89 101.491 10.47 101.491 11.63V13.97ZM121.663 7.82L122.023 7.34H124.423L127.393 20.45H127.753L131.293 7.34H134.563L138.103 20.45H138.463L141.433 7.34H143.833L144.163 7.82L140.653 23H136.123L132.913 10.73L129.733 23H125.203L121.663 7.82ZM150.706 23C147.626 23 146.086 21.47 146.086 18.41C146.086 15.35 147.626 13.82 150.706 13.82H155.776V11.63C155.776 10.47 155.196 9.89 154.036 9.89H147.616V8.36L148.996 7.34H154.096C157.156 7.34 158.686 8.87 158.686 11.93V23H150.706ZM148.996 18.68C148.996 19.86 149.586 20.45 150.766 20.45H155.776V16.1H150.766C149.586 16.1 148.996 16.69 148.996 17.87V18.68ZM163.125 4.52V1.34H166.245V4.52H163.125ZM163.245 23V7.34H166.155V23H163.245ZM170.713 18.38V2.3H173.623V7.34H179.173V9.89H173.623V18.68C173.623 19.86 174.213 20.45 175.393 20.45H179.473V21.98L178.093 23H175.303C172.243 23 170.713 21.46 170.713 18.38ZM182.783 18.29V0.8H185.693V18.59C185.693 19.93 186.373 20.65 187.733 20.75V23.27C184.433 23.27 182.783 21.61 182.783 18.29ZM191.045 4.52V1.34H194.165V4.52H191.045ZM191.165 23V7.34H194.075V23H191.165ZM198.153 21.98V20.45H205.083C206.263 20.45 206.853 19.85 206.853 18.65C206.853 17.41 206.373 16.71 205.413 16.55L201.963 15.98C199.423 15.54 198.153 14.14 198.153 11.78C198.153 8.82 199.693 7.34 202.773 7.34H207.663L209.043 8.36V9.89H202.833C201.633 9.89 201.033 10.49 201.033 11.69C201.033 12.81 201.533 13.46 202.533 13.64L206.013 14.21C208.513 14.63 209.763 16.07 209.763 18.53C209.763 21.51 208.213 23 205.113 23H199.533L198.153 21.98ZM213.691 18.38V2.3H216.601V7.34H222.151V9.89H216.601V18.68C216.601 19.86 217.191 20.45 218.371 20.45H222.451V21.98L221.071 23H218.281C215.221 23 213.691 21.46 213.691 18.38Z" fill="url(#paint0_linear_1_107)"/>
<defs>
<linearGradient id="paint0_linear_1_107" x1="261.248" y1="14.3772" x2="-37.4605" y2="14.3772" gradientUnits="userSpaceOnUse">
<stop stop-color="#FF7401"/>
<stop offset="1" stop-color="#5001EB"/>
</linearGradient>
</defs>
</svg>
