<svg width="223" height="24" viewBox="0 0 223 24" fill="none" xmlns="http://www.w3.org/2000/svg">
<path d="M0.190653 18.26V14.84H3.22065V18.56C3.22065 19.68 3.79065 20.24 4.93065 20.24H9.43065C10.5707 20.24 11.1407 19.68 11.1407 18.56V5.06H4.69065V2.3H14.1707V18.26C14.1707 21.42 12.6007 23 9.46065 23H4.90065C1.76065 23 0.190653 21.42 0.190653 18.26ZM18.744 18.38V11.93C18.744 8.87 20.274 7.34 23.334 7.34H27.534C30.594 7.34 32.124 8.87 32.124 11.93V18.38C32.124 21.46 30.594 23 27.534 23H23.334C20.274 23 18.744 21.46 18.744 18.38ZM21.654 18.68C21.654 19.86 22.244 20.45 23.424 20.45H27.474C28.634 20.45 29.214 19.86 29.214 18.68V11.63C29.214 10.47 28.634 9.89 27.474 9.89H23.424C22.244 9.89 21.654 10.47 21.654 11.63V18.68ZM36.4421 4.52V1.34H39.5621V4.52H36.4421ZM36.5621 23V7.34H39.4721V23H36.5621ZM44.15 23V7.34H52.64C55.7 7.34 57.23 8.87 57.23 11.93V23H54.32V11.63C54.32 10.47 53.74 9.89 52.58 9.89H47.06V23H44.15ZM68.8738 18.38V2.3H71.7838V7.34H77.3338V9.89H71.7838V18.68C71.7838 19.86 72.3738 20.45 73.5538 20.45H77.6338V21.98L76.2538 23H73.4638C70.4038 23 68.8738 21.46 68.8738 18.38ZM81.0641 23V0.8H83.9741V7.34H89.5541C92.6141 7.34 94.1441 8.87 94.1441 11.93V23H91.2341V11.63C91.2341 10.47 90.6541 9.89 89.4941 9.89H83.9741V23H81.0641ZM98.4608 18.38V11.93C98.4608 8.87 99.9908 7.34 103.051 7.34H106.951C110.011 7.34 111.541 8.87 111.541 11.93V16.25H101.371V18.68C101.371 19.86 101.961 20.45 103.141 20.45H110.941V21.98L109.591 23H103.051C99.9908 23 98.4608 21.46 98.4608 18.38ZM101.371 13.97H108.631V11.63C108.631 10.47 108.051 9.89 106.891 9.89H103.141C101.961 9.89 101.371 10.47 101.371 11.63V13.97ZM121.543 7.82L121.903 7.34H124.303L127.273 20.45H127.633L131.173 7.34H134.443L137.983 20.45H138.343L141.313 7.34H143.713L144.043 7.82L140.533 23H136.003L132.793 10.73L129.613 23H125.083L121.543 7.82ZM150.586 23C147.506 23 145.966 21.47 145.966 18.41C145.966 15.35 147.506 13.82 150.586 13.82H155.656V11.63C155.656 10.47 155.076 9.89 153.916 9.89H147.496V8.36L148.876 7.34H153.976C157.036 7.34 158.566 8.87 158.566 11.93V23H150.586ZM148.876 18.68C148.876 19.86 149.466 20.45 150.646 20.45H155.656V16.1H150.646C149.466 16.1 148.876 16.69 148.876 17.87V18.68ZM163.005 4.52V1.34H166.125V4.52H163.005ZM163.125 23V7.34H166.035V23H163.125ZM170.593 18.38V2.3H173.503V7.34H179.053V9.89H173.503V18.68C173.503 19.86 174.093 20.45 175.273 20.45H179.353V21.98L177.973 23H175.183C172.123 23 170.593 21.46 170.593 18.38ZM182.663 18.29V0.8H185.573V18.59C185.573 19.93 186.253 20.65 187.613 20.75V23.27C184.313 23.27 182.663 21.61 182.663 18.29ZM190.925 4.52V1.34H194.045V4.52H190.925ZM191.045 23V7.34H193.955V23H191.045ZM198.032 21.98V20.45H204.962C206.142 20.45 206.732 19.85 206.732 18.65C206.732 17.41 206.252 16.71 205.292 16.55L201.842 15.98C199.302 15.54 198.032 14.14 198.032 11.78C198.032 8.82 199.572 7.34 202.652 7.34H207.542L208.922 8.36V9.89H202.712C201.512 9.89 200.912 10.49 200.912 11.69C200.912 12.81 201.412 13.46 202.412 13.64L205.892 14.21C208.392 14.63 209.642 16.07 209.642 18.53C209.642 21.51 208.092 23 204.992 23H199.412L198.032 21.98ZM213.571 18.38V2.3H216.481V7.34H222.031V9.89H216.481V18.68C216.481 19.86 217.071 20.45 218.251 20.45H222.331V21.98L220.951 23H218.161C215.101 23 213.571 21.46 213.571 18.38Z" fill="url(#paint0_linear_1_17)"/>
<defs>
<linearGradient id="paint0_linear_1_17" x1="294.681" y1="14.3772" x2="-70.7597" y2="14.3772" gradientUnits="userSpaceOnUse">
<stop stop-color="#FF7401"/>
<stop offset="1" stop-color="#5001EB"/>
</linearGradient>
</defs>
</svg>
