<svg width="179" height="19" viewBox="0 0 179 19" fill="none" xmlns="http://www.w3.org/2000/svg">
<path d="M0.439852 14.208V11.472H2.86385V14.448C2.86385 15.344 3.31985 15.792 4.23185 15.792H7.83185C8.74385 15.792 9.19985 15.344 9.19985 14.448V3.648H4.03985V1.44H11.6239V14.208C11.6239 16.736 10.3679 18 7.85585 18H4.20785C1.69585 18 0.439852 16.736 0.439852 14.208ZM15.2825 14.304V9.144C15.2825 6.696 16.5065 5.472 18.9545 5.472H22.3145C24.7625 5.472 25.9865 6.696 25.9865 9.144V14.304C25.9865 16.768 24.7625 18 22.3145 18H18.9545C16.5065 18 15.2825 16.768 15.2825 14.304ZM17.6105 14.544C17.6105 15.488 18.0825 15.96 19.0265 15.96H22.2665C23.1945 15.96 23.6585 15.488 23.6585 14.544V8.904C23.6585 7.976 23.1945 7.512 22.2665 7.512H19.0265C18.0825 7.512 17.6105 7.976 17.6105 8.904V14.544ZM29.441 3.216V0.671999H31.937V3.216H29.441ZM29.537 18V5.472H31.865V18H29.537ZM35.6074 18V5.472H42.3994C44.8474 5.472 46.0714 6.696 46.0714 9.144V18H43.7434V8.904C43.7434 7.976 43.2794 7.512 42.3514 7.512H37.9354V18H35.6074ZM55.3864 14.304V1.44H57.7144V5.472H62.1544V7.512H57.7144V14.544C57.7144 15.488 58.1864 15.96 59.1304 15.96H62.3944V17.184L61.2904 18H59.0584C56.6104 18 55.3864 16.768 55.3864 14.304ZM65.1386 18V0.24H67.4666V5.472H71.9306C74.3786 5.472 75.6026 6.696 75.6026 9.144V18H73.2746V8.904C73.2746 7.976 72.8106 7.512 71.8826 7.512H67.4666V18H65.1386ZM79.056 14.304V9.144C79.056 6.696 80.28 5.472 82.728 5.472H85.848C88.296 5.472 89.52 6.696 89.52 9.144V12.6H81.384V14.544C81.384 15.488 81.856 15.96 82.8 15.96H89.04V17.184L87.96 18H82.728C80.28 18 79.056 16.768 79.056 14.304ZM81.384 10.776H87.192V8.904C87.192 7.976 86.728 7.512 85.8 7.512H82.8C81.856 7.512 81.384 7.976 81.384 8.904V10.776ZM97.5217 5.856L97.8097 5.472H99.7297L102.106 15.96H102.394L105.226 5.472H107.842L110.674 15.96H110.962L113.338 5.472H115.258L115.522 5.856L112.714 18H109.09L106.522 8.184L103.978 18H100.354L97.5217 5.856ZM120.756 18C118.292 18 117.06 16.776 117.06 14.328C117.06 11.88 118.292 10.656 120.756 10.656H124.812V8.904C124.812 7.976 124.348 7.512 123.42 7.512H118.284V6.288L119.388 5.472H123.468C125.916 5.472 127.14 6.696 127.14 9.144V18H120.756ZM119.388 14.544C119.388 15.488 119.86 15.96 120.804 15.96H124.812V12.48H120.804C119.86 12.48 119.388 12.952 119.388 13.896V14.544ZM130.691 3.216V0.671999H133.187V3.216H130.691ZM130.787 18V5.472H133.115V18H130.787ZM136.761 14.304V1.44H139.089V5.472H143.529V7.512H139.089V14.544C139.089 15.488 139.561 15.96 140.505 15.96H143.769V17.184L142.665 18H140.433C137.985 18 136.761 16.768 136.761 14.304ZM146.418 14.232V0.24H148.746V14.472C148.746 15.544 149.29 16.12 150.378 16.2V18.216C147.738 18.216 146.418 16.888 146.418 14.232ZM153.027 3.216V0.671999H155.523V3.216H153.027ZM153.123 18V5.472H155.451V18H153.123ZM158.713 17.184V15.96H164.257C165.201 15.96 165.673 15.48 165.673 14.52C165.673 13.528 165.289 12.968 164.521 12.84L161.761 12.384C159.729 12.032 158.713 10.912 158.713 9.024C158.713 6.656 159.945 5.472 162.409 5.472H166.321L167.425 6.288V7.512H162.457C161.497 7.512 161.017 7.992 161.017 8.952C161.017 9.848 161.417 10.368 162.217 10.512L165.001 10.968C167.001 11.304 168.001 12.456 168.001 14.424C168.001 16.808 166.761 18 164.281 18H159.817L158.713 17.184ZM171.144 14.304V1.44H173.472V5.472H177.912V7.512H173.472V14.544C173.472 15.488 173.944 15.96 174.888 15.96H178.152V17.184L177.048 18H174.816C172.368 18 171.144 16.768 171.144 14.304Z" fill="url(#paint0_linear_1_61)"/>
<defs>
<linearGradient id="paint0_linear_1_61" x1="212.385" y1="11.3772" x2="-32.9373" y2="11.3772" gradientUnits="userSpaceOnUse">
<stop stop-color="#FF7401"/>
<stop offset="1" stop-color="#5001EB"/>
</linearGradient>
</defs>
</svg>
