<svg width="292" height="80" viewBox="0 0 292 80" fill="none" xmlns="http://www.w3.org/2000/svg">
<path d="M0.826329 3.132L1.54633 2.16H5.79433L9.79033 22.32H10.1863L14.4703 4.536H19.5823L23.8663 22.32H24.2623L28.2583 2.16H32.5063L33.2263 3.132L28.3663 27H20.1223L17.0263 13.86L13.9303 27H5.68633L0.826329 3.132ZM35.8372 21.168V13.824C35.8372 9.936 37.7812 7.992 41.6692 7.992H46.7092C50.5972 7.992 52.5412 9.936 52.5412 13.824V21.168C52.5412 25.056 50.5972 27 46.7092 27H41.6692C37.7812 27 35.8372 25.056 35.8372 21.168ZM40.8052 21.528C40.8052 22.296 41.1892 22.68 41.9572 22.68H46.4212C47.1892 22.68 47.5732 22.296 47.5732 21.528V13.464C47.5732 12.696 47.1892 12.312 46.4212 12.312H41.9572C41.1892 12.312 40.8052 12.696 40.8052 13.464V21.528ZM57.2859 27V10.44C58.1739 8.808 59.8779 7.992 62.3979 7.992H66.2859L68.4459 9.612V12.312H63.7299C63.0099 12.312 62.5179 12.492 62.2539 12.852V27H57.2859ZM71.9845 27V0.36H76.9525V15.156L83.5405 7.992H88.4365L88.8325 8.82L82.2445 15.912L89.3365 26.172L88.9405 27H84.0805L78.9685 19.476L76.9525 21.672V27H71.9845ZM92.7594 4.86V-2.14577e-06H97.9434V4.86H92.7594ZM92.8674 27V7.992H97.8354V27H92.8674ZM103.028 27V7.992H113.54C117.428 7.992 119.372 9.936 119.372 13.824V27H114.404V13.464C114.404 12.696 114.02 12.312 113.252 12.312H107.996V27H103.028ZM123.971 21.168V13.824C123.971 9.936 125.915 7.992 129.803 7.992H140.315V28.368C140.315 32.256 138.371 34.2 134.483 34.2H127.751L125.591 32.58V29.88H134.195C134.963 29.88 135.347 29.496 135.347 28.728V27H129.803C125.915 27 123.971 25.056 123.971 21.168ZM128.939 21.528C128.939 22.296 129.323 22.68 130.091 22.68H135.347V12.312H130.091C129.323 12.312 128.939 12.696 128.939 13.464V21.528ZM152.204 8.748L152.744 7.992H156.92L159.8 22.68H160.052L163.508 7.992H169.016L172.508 22.68H172.76L175.64 7.992H179.816L180.356 8.748L176.54 27H169.124L166.28 13.932L163.436 27H156.02L152.204 8.748ZM183.638 4.86V-2.14577e-06H188.822V4.86H183.638ZM183.746 27V7.992H188.714V27H183.746ZM193.762 21.168V2.16H198.73V7.992H204.922V12.312H198.73V21.528C198.73 22.296 199.114 22.68 199.882 22.68H205.282V25.38L203.122 27H199.594C195.706 27 193.762 25.056 193.762 21.168ZM209.164 27V0.36H214.132V7.992H219.676C223.564 7.992 225.508 9.936 225.508 13.824V27H220.54V13.464C220.54 12.696 220.156 12.312 219.388 12.312H214.132V27H209.164ZM239.044 21.168V2.16H244.012V7.992H250.204V12.312H244.012V21.528C244.012 22.296 244.396 22.68 245.164 22.68H250.564V25.38L248.404 27H244.876C240.988 27 239.044 25.056 239.044 21.168ZM254.445 27V0.36H259.413V7.992H264.957C268.845 7.992 270.789 9.936 270.789 13.824V27H265.821V13.464C265.821 12.696 265.437 12.312 264.669 12.312H259.413V27H254.445ZM275.532 21.168V13.824C275.532 9.936 277.476 7.992 281.364 7.992H286.044C289.932 7.992 291.876 9.936 291.876 13.824V19.332H280.5V21.528C280.5 22.296 280.884 22.68 281.652 22.68H291.156V25.38L288.996 27H281.364C277.476 27 275.532 25.056 275.532 21.168ZM280.5 15.516H286.908V13.464C286.908 12.696 286.524 12.312 285.756 12.312H281.652C280.884 12.312 280.5 12.696 280.5 13.464V15.516ZM52.6946 66.168V58.824C52.6946 54.936 54.6386 52.992 58.5266 52.992H65.2226L67.3826 54.612V57.312H58.8146C58.0466 57.312 57.6626 57.696 57.6626 58.464V66.528C57.6626 67.296 58.0466 67.68 58.8146 67.68H67.3826V70.38L65.2226 72H58.5266C54.6386 72 52.6946 70.056 52.6946 66.168ZM71.3274 66.168V58.824C71.3274 54.936 73.2714 52.992 77.1594 52.992H82.1994C86.0874 52.992 88.0314 54.936 88.0314 58.824V66.168C88.0314 70.056 86.0874 72 82.1994 72H77.1594C73.2714 72 71.3274 70.056 71.3274 66.168ZM76.2954 66.528C76.2954 67.296 76.6794 67.68 77.4474 67.68H81.9114C82.6794 67.68 83.0634 67.296 83.0634 66.528V58.464C83.0634 57.696 82.6794 57.312 81.9114 57.312H77.4474C76.6794 57.312 76.2954 57.696 76.2954 58.464V66.528ZM92.9201 72V52.992H114.592C118.48 52.992 120.424 54.936 120.424 58.824V72H115.456V58.464C115.456 57.696 115.072 57.312 114.304 57.312H109.156V72H104.188V57.312H97.8881V72H92.9201ZM125.475 72V52.992H147.147C151.035 52.992 152.979 54.936 152.979 58.824V72H148.011V58.464C148.011 57.696 147.627 57.312 146.859 57.312H141.711V72H136.743V57.312H130.443V72H125.475ZM157.885 66.168V52.992H162.853V66.528C162.853 67.296 163.237 67.68 164.005 67.68H169.261V52.992H174.229V72H163.717C159.829 72 157.885 70.056 157.885 66.168ZM179.404 72V52.992H189.916C193.804 52.992 195.748 54.936 195.748 58.824V72H190.78V58.464C190.78 57.696 190.396 57.312 189.628 57.312H184.372V72H179.404ZM200.671 49.86V45H205.855V49.86H200.671ZM200.779 72V52.992H205.747V72H200.779ZM210.796 66.168V47.16H215.764V52.992H221.956V57.312H215.764V66.528C215.764 67.296 216.148 67.68 216.916 67.68H222.316V70.38L220.156 72H216.628C212.74 72 210.796 70.056 210.796 66.168ZM224.253 53.748L224.757 52.992H229.041L233.433 67.68H233.793L238.185 52.992H242.469L242.973 53.748L235.017 79.2H230.733L230.229 78.444L232.389 72H229.977L224.253 53.748Z" fill="url(#paint0_linear_260_86)"/>
<defs>
<linearGradient id="paint0_linear_260_86" x1="310.936" y1="39.7959" x2="-16.936" y2="39.7959" gradientUnits="userSpaceOnUse">
<stop stop-color="#FF7401"/>
<stop offset="1" stop-color="#5001EB"/>
</linearGradient>
</defs>
</svg>
