<svg width="660" height="46" viewBox="0 0 660 46" fill="none" xmlns="http://www.w3.org/2000/svg">
<path d="M0.523688 4.176L1.48369 2.88H7.14769L12.4757 29.76H13.0037L18.7157 6.048H25.5317L31.2437 29.76H31.7717L37.0997 2.88H42.7637L43.7237 4.176L37.2437 36H26.2517L22.1237 18.48L17.9957 36H7.00369L0.523688 4.176ZM47.2048 28.224V18.432C47.2048 13.248 49.7968 10.656 54.9808 10.656H61.7008C66.8848 10.656 69.4768 13.248 69.4768 18.432V28.224C69.4768 33.408 66.8848 36 61.7008 36H54.9808C49.7968 36 47.2048 33.408 47.2048 28.224ZM53.8288 28.704C53.8288 29.728 54.3408 30.24 55.3648 30.24H61.3168C62.3408 30.24 62.8528 29.728 62.8528 28.704V17.952C62.8528 16.928 62.3408 16.416 61.3168 16.416H55.3648C54.3408 16.416 53.8288 16.928 53.8288 17.952V28.704ZM75.8031 36V13.92C76.9871 11.744 79.2591 10.656 82.6191 10.656H87.8031L90.6831 12.816V16.416H84.3951C83.4351 16.416 82.7791 16.656 82.4271 17.136V36H75.8031ZM95.4013 36V0.48H102.025V20.208L110.809 10.656H117.337L117.865 11.76L109.081 21.216L118.537 34.896L118.009 36H111.529L104.713 25.968L102.025 28.896V36H95.4013ZM123.101 6.48V-2.86102e-06H130.013V6.48H123.101ZM123.245 36V10.656H129.869V36H123.245ZM136.792 36V10.656H150.808C155.992 10.656 158.584 13.248 158.584 18.432V36H151.96V17.952C151.96 16.928 151.448 16.416 150.424 16.416H143.416V36H136.792ZM164.716 28.224V18.432C164.716 13.248 167.308 10.656 172.492 10.656H186.508V37.824C186.508 43.008 183.916 45.6 178.732 45.6H169.756L166.876 43.44V39.84H178.348C179.372 39.84 179.884 39.328 179.884 38.304V36H172.492C167.308 36 164.716 33.408 164.716 28.224ZM171.34 28.704C171.34 29.728 171.852 30.24 172.876 30.24H179.884V16.416H172.876C171.852 16.416 171.34 16.928 171.34 17.952V28.704ZM202.361 11.664L203.081 10.656H208.649L212.489 30.24H212.825L217.433 10.656H224.777L229.433 30.24H229.769L233.609 10.656H239.177L239.897 11.664L234.809 36H224.921L221.129 18.576L217.337 36H207.449L202.361 11.664ZM244.273 6.48V-2.86102e-06H251.185V6.48H244.273ZM244.417 36V10.656H251.041V36H244.417ZM257.772 28.224V2.88H264.396V10.656H272.652V16.416H264.396V28.704C264.396 29.728 264.908 30.24 265.932 30.24H273.132V33.84L270.252 36H265.548C260.364 36 257.772 33.408 257.772 28.224ZM278.308 36V0.48H284.932V10.656H292.324C297.508 10.656 300.1 13.248 300.1 18.432V36H293.476V17.952C293.476 16.928 292.964 16.416 291.94 16.416H284.932V36H278.308ZM318.147 28.224V2.88H324.771V10.656H333.027V16.416H324.771V28.704C324.771 29.728 325.283 30.24 326.307 30.24H333.507V33.84L330.627 36H325.923C320.739 36 318.147 33.408 318.147 28.224ZM338.683 36V0.48H345.307V10.656H352.699C357.883 10.656 360.475 13.248 360.475 18.432V36H353.851V17.952C353.851 16.928 353.339 16.416 352.315 16.416H345.307V36H338.683ZM366.799 28.224V18.432C366.799 13.248 369.391 10.656 374.575 10.656H380.815C385.999 10.656 388.591 13.248 388.591 18.432V25.776H373.423V28.704C373.423 29.728 373.935 30.24 374.959 30.24H387.631V33.84L384.751 36H374.575C369.391 36 366.799 33.408 366.799 28.224ZM373.423 20.688H381.967V17.952C381.967 16.928 381.455 16.416 380.431 16.416H374.959C373.935 16.416 373.423 16.928 373.423 17.952V20.688ZM406.267 28.224V18.432C406.267 13.248 408.859 10.656 414.043 10.656H422.971L425.851 12.816V16.416H414.427C413.403 16.416 412.891 16.928 412.891 17.952V28.704C412.891 29.728 413.403 30.24 414.427 30.24H425.851V33.84L422.971 36H414.043C408.859 36 406.267 33.408 406.267 28.224ZM431.111 28.224V18.432C431.111 13.248 433.703 10.656 438.887 10.656H445.607C450.791 10.656 453.383 13.248 453.383 18.432V28.224C453.383 33.408 450.791 36 445.607 36H438.887C433.703 36 431.111 33.408 431.111 28.224ZM437.735 28.704C437.735 29.728 438.247 30.24 439.271 30.24H445.223C446.247 30.24 446.759 29.728 446.759 28.704V17.952C446.759 16.928 446.247 16.416 445.223 16.416H439.271C438.247 16.416 437.735 16.928 437.735 17.952V28.704ZM459.901 36V10.656H488.797C493.981 10.656 496.573 13.248 496.573 18.432V36H489.949V17.952C489.949 16.928 489.437 16.416 488.413 16.416H481.549V36H474.925V16.416H466.525V36H459.901ZM503.308 36V10.656H532.204C537.388 10.656 539.98 13.248 539.98 18.432V36H533.356V17.952C533.356 16.928 532.844 16.416 531.82 16.416H524.956V36H518.332V16.416H509.932V36H503.308ZM546.522 28.224V10.656H553.146V28.704C553.146 29.728 553.658 30.24 554.682 30.24H561.69V10.656H568.314V36H554.298C549.114 36 546.522 33.408 546.522 28.224ZM575.214 36V10.656H589.23C594.414 10.656 597.006 13.248 597.006 18.432V36H590.382V17.952C590.382 16.928 589.87 16.416 588.846 16.416H581.838V36H575.214ZM603.57 6.48V-2.86102e-06H610.482V6.48H603.57ZM603.714 36V10.656H610.338V36H603.714ZM617.069 28.224V2.88H623.693V10.656H631.949V16.416H623.693V28.704C623.693 29.728 624.205 30.24 625.229 30.24H632.429V33.84L629.549 36H624.845C619.661 36 617.069 33.408 617.069 28.224ZM635.012 11.664L635.684 10.656H641.396L647.252 30.24H647.732L653.588 10.656H659.3L659.972 11.664L649.364 45.6H643.652L642.98 44.592L645.86 36H642.644L635.012 11.664Z" fill="url(#paint0_linear_240_149)"/>
<defs>
<linearGradient id="paint0_linear_240_149" x1="846" y1="22.1964" x2="-186" y2="22.1963" gradientUnits="userSpaceOnUse">
<stop stop-color="#FF7401"/>
<stop offset="1" stop-color="#5001EB"/>
</linearGradient>
</defs>
</svg>
